<svg width="18" height="17" viewBox="0 0 18 17" fill="none" xmlns="http://www.w3.org/2000/svg">
<path d="M5.1333 3.04883L16.3622 3.04883" stroke="#E86917" stroke-width="2" stroke-linecap="round"/>
<path d="M6.38086 8.51221H1.39024" stroke="#E86917" stroke-width="2" stroke-linecap="round"/>
<path d="M16.3618 8.51221H11.3712" stroke="#E86917" stroke-width="2" stroke-linecap="round"/>
<path d="M1.39014 13.9756L12.619 13.9756" stroke="#E86917" stroke-width="2" stroke-linecap="round"/>
<path d="M7.38096 8.51219C7.38096 7.46868 8.1337 6.78048 8.87627 6.78048C9.61884 6.78048 10.3716 7.46868 10.3716 8.51219C10.3716 9.5557 9.61884 10.2439 8.87627 10.2439C8.1337 10.2439 7.38096 9.5557 7.38096 8.51219Z" stroke="#E86917" stroke-width="2"/>
<path d="M13.6192 13.9756C13.6192 12.9321 14.372 12.2439 15.1146 12.2439C15.8571 12.2439 16.6099 12.9321 16.6099 13.9756C16.6099 15.0191 15.8571 15.7073 15.1146 15.7073C14.372 15.7073 13.6192 15.0191 13.6192 13.9756Z" stroke="#E86917" stroke-width="2"/>
<path d="M1.14268 3.04881C1.14268 2.0053 1.89542 1.3171 2.63799 1.3171C3.38056 1.3171 4.1333 2.0053 4.1333 3.04881C4.1333 4.09232 3.38056 4.78052 2.63799 4.78052C1.89542 4.78052 1.14268 4.09232 1.14268 3.04881Z" stroke="#E86917" stroke-width="2"/>
</svg>
