<svg width="35" height="35" viewBox="0 0 35 35" fill="none" xmlns="http://www.w3.org/2000/svg">
<circle cx="17.5" cy="17.5" r="16.5" fill="white" stroke="white" stroke-width="2"/>
<path fill-rule="evenodd" clip-rule="evenodd" d="M25.083 10.0618C24.8419 9.62946 24.6042 9.53216 24.3963 9.57568C24.0741 9.64312 23.8997 9.82779 23.786 10.151C23.6599 10.5095 23.6322 10.9869 23.6322 11.5314V17.1983C24.4206 17.1538 25.0461 16.5004 25.0461 15.7008V14.3385C25.0461 14.2662 25.0457 14.1917 25.0452 14.1156V14.1155C25.0423 13.6505 25.039 13.1249 25.1387 12.659C25.1972 12.3854 25.2935 12.1179 25.4483 11.8762V11.875V11.8733V11.8715V11.8698V11.868V11.8663V11.8645V11.8627V11.861V11.8592V11.8574V11.8556V11.8538V11.852V11.8501V11.8483V11.8464V11.8446V11.8427V11.8409V11.839V11.8371V11.8352V11.8333V11.8314V11.8295V11.8276V11.8257V11.8237V11.8218V11.8198V11.8179V11.8159V11.8139V11.812V11.81V11.808V11.806V11.8039V11.8019V11.7999V11.7978V11.7958V11.7937V11.7917V11.7896V11.7875V11.7854V11.7834V11.7812V11.7791V11.777V11.7749V11.7728V11.7706V11.7685V11.7663V11.7641V11.762V11.7598V11.7576V11.7554V11.7532V11.751V11.7487V11.7465V11.7443V11.742V11.7397V11.7375V11.7352V11.7329V11.7306V11.7283V11.726V11.7237V11.7214V11.7191V11.7167V11.7144V11.712V11.7096V11.7073V11.7049V11.7025V11.7001V11.6977V11.6953V11.6929V11.6904V11.688V11.6855V11.6831V11.6806V11.6781V11.6756V11.6732V11.6707V11.6681V11.6656V11.6631V11.6606V11.658V11.6555V11.6529V11.6503V11.6478V11.6452V11.6426V11.64V11.6374V11.6348V11.6321V11.6295V11.6268V11.6242V11.6215V11.6189V11.6162V11.6135V11.6108V11.6081V11.6054V11.6026V11.5999V11.5972V11.5944V11.5917V11.5889V11.5861V11.5833V11.5805V11.5777V11.5749V11.5721V11.5693V11.5664V11.5636V11.5607V11.5579V11.555V11.5521V11.5492V11.5463V11.5434V11.5405V11.5376V11.5346V11.5317C25.4483 11.062 25.3168 10.481 25.083 10.0618ZM26.4236 11.1004C26.3665 10.5864 26.2107 10.0308 25.9564 9.57475C25.636 9.00029 25.0465 8.41793 24.1914 8.59689C23.5889 8.723 23.2075 9.07384 22.9778 9.50828C22.9195 9.49772 22.8617 9.48912 22.8045 9.48245C22.2486 9.41766 21.7722 9.56321 21.3931 9.87215C21.0293 10.1686 20.7879 10.5881 20.6239 11.0243C20.5853 11.1269 20.5501 11.2328 20.5181 11.3411C20.1469 11.3271 19.8129 11.433 19.5302 11.641C19.1915 11.8903 18.9646 12.2573 18.8096 12.6338C18.5009 13.3834 18.4082 14.3407 18.4082 15.1021V18.9075H18.4297C18.4125 19.025 18.4082 19.1358 18.4082 19.2322V21.7238V21.75L18.411 21.7761C18.5132 22.7478 19.0503 24.4446 20.4614 25.3872C21.4009 26.0147 22.2063 26.8085 22.3217 27.7074C22.6328 30.1301 23.5613 32.1638 24.1164 33.052L24.9644 32.522C24.478 31.7437 23.6045 29.846 23.3136 27.5801C23.1376 26.21 21.9796 25.1987 21.0168 24.5556C19.9625 23.8514 19.5011 22.5182 19.4082 21.6966V19.2322C19.4082 19.0466 19.4348 18.9464 19.4721 18.8883C19.6553 18.6035 20.088 18.2008 20.9197 18.2008H20.9238H20.9279H20.9319H20.936H20.9401H20.9443H20.9484H20.9525H20.9566H20.9608H20.9649H20.9691H20.9732H20.9774H20.9816H20.9857H20.9899H20.9941H20.9983H21.0025H21.0067H21.011H21.0152H21.0194H21.0237H21.0279H21.0322H21.0364H21.0407H21.045H21.0492H21.0535H21.0578H21.0621H21.0664H21.0707H21.075H21.0794H21.0837H21.088H21.0924H21.0967H21.1011H21.1054H21.1098H21.1142H21.1185H21.1229H21.1273H21.1317H21.1361H21.1405H21.145H21.1494H21.1538H21.1582H21.1627H21.1671H21.1716H21.176H21.1805H21.185H21.1895H21.1939H21.1984H21.2029H21.2074H21.2119H21.2164H21.221H21.2255H21.23H21.2345H21.2391H21.2436H21.2482H21.2527H21.2573H21.2619H21.2664H21.271H21.2756H21.2802H21.2848H21.2894H21.294H21.2986H21.3032H21.3079H21.3125H21.3171H21.3218H21.3264H21.3311H21.3357H21.3404H21.3451H21.3497H21.3544H21.3591H21.3638H21.3685H21.3732H21.3779H21.3826H21.3873H21.3921H21.3968H21.4015H21.4062H21.411H21.4157H21.4205H21.4252H21.43H21.4348H21.4396H21.4443H21.4491H21.4539H21.4587H21.4635H21.4683H21.4731H21.4779H21.4827H21.4876H21.4924H21.4972H21.502H21.5069H21.5117H21.5166H21.5214H21.5263H21.5312H21.536H21.5409H21.5458H21.5507H21.5556H21.5605H21.5654H21.5703H21.5752H21.5801H21.585H21.5899H21.5948H21.5998H21.6047H21.6096H21.6146H21.6195H21.6245H21.6294H21.6344H21.6394H21.6443H21.6493H21.6543H21.6593H21.6643H21.6693H21.6742H21.6792H21.6843H21.6893H21.6943H21.6993H21.7043H21.7093H21.7144H21.7194H21.7244H21.7295H21.7345H21.7396H21.7446H21.7497H21.7547H21.7598H21.7649H21.7699H21.775H21.7801H21.7852H21.7903H21.7954H21.8005H21.8056H21.8107H21.8158H21.8209H21.826H21.8311H21.8362H21.8414H21.8465H21.8516H21.8568H21.8619H21.867H21.8722H21.8773H21.8825H21.8877H21.8928H21.898H21.9031H21.9083H21.9135H21.9187H21.9239H21.929H21.9342H21.9394H21.9446H21.9498H21.955H21.9602H21.9654H21.9707H21.9759H21.9811H21.9863H21.9915H21.9968H22.002H22.0072H22.0125H22.0177H22.023H22.0282H22.0335H22.0387H22.044H22.0492H22.0545H22.0598H22.065H22.0703H22.0756H22.0808H22.0861H22.0914H22.0967H22.102H22.1073H22.1126H22.1179H22.1232H22.1285H22.1338H22.1391H22.1444H22.1497H22.155H22.1603H22.1657H22.171H22.1763H22.1816H22.187H22.1923H22.1976H22.203H22.2083H22.2137H22.219H22.2244H22.2297H22.2351H22.2404H22.2458H22.2512H22.2565H22.2619H22.2673H22.2726H22.278H22.2834H22.2888H22.2941H22.2995H22.3049H22.3103H22.3157H22.3211H22.3265H22.3319H22.3373H22.3427H22.3481H22.3535H22.3589H22.3643H22.3697H22.3751H22.3805H22.3859H22.3914H22.3968H22.4022H22.4076H22.413H22.4185H22.4239H22.4293H22.4348H22.4402H22.4456H22.4511H22.4565H22.462H22.4674H22.4729H22.4783H22.4837H22.4892H22.4947H22.5001H22.5056H22.511H22.5165H22.5219H22.5274H22.5329H22.5383H22.5438H22.5493H22.5547H22.5602H22.5657H22.5711H22.5766H22.5821H22.5876H22.5931H22.5985H22.604H22.6095H22.615H22.6205H22.626H22.6314H22.6369H22.6424H22.6479H22.6534H22.6589H22.6644H22.6699H22.6754H22.6809H22.6864H22.6919H22.6974H22.7029H22.7084H22.7139H22.7194H22.7249H22.7304H22.7359H22.7414H22.7469H22.7524H22.7579H22.7635H22.769H22.7745H22.78H22.7855H22.791H22.7965H22.8021H22.8076H22.8131H22.8186H22.8241H22.8297H22.8352H22.8407H22.8462H22.8517H22.8573H22.8628H22.8683H22.8738H22.8794H22.8849H22.8904H22.8959H22.9015H22.907H22.9125H22.9181H22.9236H22.9291H22.9346H22.9402H22.9457H22.9512H22.9568H22.9623H22.9678H22.9733H22.9789H22.9844H22.9899H22.9955H23.001H23.0065H23.0121H23.0176H23.0231H23.0287H23.0342H23.0397H23.0453H23.0508H23.0563H23.0618H23.0674H23.0729H23.0784H23.084H23.0895H23.095H23.1006H23.1061H23.1116H23.1171H23.1227H23.1282H23.1337H23.1393H23.1448H23.1503H23.1558H23.1614H23.1669H23.1724H23.1779H23.1835H23.189H23.1945H23.2H23.2056H23.2111H23.2166H23.2221H23.2277H23.2332H23.2387H23.2442H23.2497H23.2552H23.2608H23.2663H23.2718H23.2773H23.2828H23.2883H23.2939H23.2994H23.3049H23.3104H23.3159H23.3214H23.3269H23.3324H23.3379H23.3434H23.3489H23.3544H23.3599H23.3654H23.3709H23.3764H23.3819H23.3874H23.3929H23.3984H23.4039H23.4094H23.4149H23.4204H23.4259H23.4314H23.4368H23.4423H23.4478H23.4533H23.4588H23.4643H23.4697H23.4752H23.4807H23.4862H23.4916H23.4971H23.5026H23.508H23.5135H23.519H23.5244H23.5299H23.5354H23.5408H23.5463C24.927 18.2008 26.0461 17.0814 26.0461 15.7008V14.3385C26.0461 14.2544 26.0458 14.1725 26.0454 14.0926L26.0454 14.0924V14.0924C26.0434 13.6185 26.0416 13.2185 26.1165 12.8681C26.1963 12.4952 26.3504 12.2442 26.67 12.0797C26.8219 12.0016 26.9044 12.0229 26.9911 12.0805C27.1174 12.1646 27.2698 12.3537 27.4161 12.67C27.7044 13.2934 27.8622 14.1763 27.8622 14.8201V14.8243V14.8285V14.8327V14.8369V14.841V14.8452V14.8493V14.8534V14.8575V14.8616V14.8657V14.8698V14.8738V14.8779V14.8819V14.886V14.89V14.894V14.898V14.902V14.906V14.9099V14.9139V14.9178V14.9218V14.9257V14.9296V14.9335V14.9374V14.9413V14.9451V14.949V14.9528V14.9567V14.9605V14.9643V14.9681V14.9719V14.9757V14.9794V14.9832V14.987V14.9907V14.9944V14.9981V15.0018V15.0055V15.0092V15.0129V15.0166V15.0202V15.0238V15.0275V15.0311V15.0347V15.0383V15.0419V15.0455V15.049V15.0526V15.0561V15.0597V15.0632V15.0667V15.0702V15.0737V15.0772V15.0807V15.0841V15.0876V15.091V15.0944V15.0978V15.1013V15.1047V15.108V15.1114V15.1148V15.1181V15.1215V15.1248V15.1281V15.1314V15.1347V15.138V15.1413V15.1446V15.1479V15.1511V15.1543V15.1576V15.1608V15.164V15.1672V15.1704V15.1736V15.1767V15.1799V15.183V15.1862V15.1893V15.1924V15.1955V15.1986V15.2017V15.2048V15.2078V15.2109V15.2139V15.217V15.22V15.223V15.226V15.229V15.232V15.2349V15.2379V15.2409V15.2438V15.2467V15.2497V15.2526V15.2555V15.2584V15.2612V15.2641V15.267V15.2698V15.2727V15.2755V15.2783V15.2811V15.2839V15.2867V15.2895V15.2922V15.295V15.2978V15.3005V15.3032V15.3059V15.3086V15.3113V15.314V15.3167V15.3194V15.322V15.3247V15.3273V15.33V15.3326V15.3352V15.3378V15.3404V15.343V15.3455V15.3481V15.3506V15.3532V15.3557V15.3582V15.3607V15.3632V15.3657V15.3682V15.3707V15.3731V15.3756V15.378V15.3805V15.3829V15.3853V15.3877V15.3901V15.3925V15.3948V15.3972V15.3996V15.4019V15.4042V15.4066V15.4089V15.4112V15.4135V15.4158V15.418V15.4203V15.4226V15.4248V15.427V15.4293V15.4315V15.4337V15.4359V15.4381V15.4403V15.4424V15.4446V15.4467V15.4489V15.451V15.4531V15.4553V15.4574V15.4594V15.4615V15.4636V15.4657V15.4677V15.4698V15.4718V15.4738V15.4759V15.4779V15.4799V15.4818V15.4838V15.4858V15.4878V15.4897V15.4917V15.4936V15.4955V15.4974V15.4993V15.5012V15.5031V15.505V15.5053C27.839 15.5203 27.8161 15.536 27.7935 15.5525C27.4484 15.8041 27.2218 16.1951 27.0682 16.5852C26.7591 17.3708 26.6553 18.3909 26.6553 19.1599L26.6553 19.3099C26.6553 19.586 26.8792 19.8099 27.1553 19.8099C27.4315 19.8099 27.6553 19.586 27.6553 19.3099L27.6553 19.1599C27.6553 18.4484 27.7552 17.5706 27.9988 16.9514C28.1217 16.6391 28.2587 16.4509 28.3827 16.3605C28.4756 16.2928 28.5888 16.2557 28.7929 16.3276C28.803 16.3311 28.8132 16.335 28.8235 16.3391C29.158 16.4735 29.3809 16.7665 29.5257 17.2288C29.6728 17.698 29.7142 18.2673 29.7287 18.8295C29.7504 19.6701 29.7654 20.5763 29.7605 21.3282C29.7581 21.7045 29.7507 22.0379 29.7371 22.3031C29.7228 22.5828 29.7032 22.7466 29.6875 22.8093C29.6389 23.0037 29.4298 23.3266 29.1063 23.6988C28.8304 24.0161 28.5224 24.3124 28.3036 24.5053C27.182 24.9042 25.9253 24.6845 25.005 24.1148C24.0505 23.5239 23.5957 22.6636 23.8161 21.8554C23.8888 21.5889 23.7317 21.3141 23.4653 21.2414C23.1989 21.1688 22.924 21.3258 22.8514 21.5922C22.4684 22.9966 23.3211 24.2484 24.4786 24.965C25.4544 25.5691 26.7446 25.8685 28.0009 25.6222C28.0061 26.2735 28.1682 26.8905 28.3818 27.4179C28.6791 28.1522 29.0925 28.7538 29.3968 29.0962C29.5803 29.3026 29.8963 29.3212 30.1027 29.1377C30.3091 28.9543 30.3277 28.6382 30.1442 28.4318C29.9122 28.1708 29.5612 27.6661 29.3087 27.0426C29.076 26.4679 28.9408 25.8271 29.027 25.2001C29.2671 24.9842 29.5771 24.6814 29.861 24.3549C30.1844 23.9828 30.5453 23.5011 30.6576 23.0518C30.7001 22.882 30.7219 22.6261 30.7358 22.3542C30.7505 22.0679 30.758 21.7179 30.7605 21.3346C30.7654 20.5673 30.7502 19.649 30.7284 18.8037C30.7136 18.2323 30.6719 17.5421 30.48 16.9298C30.2859 16.3104 29.9141 15.6995 29.1963 15.4112C29.1729 15.4018 29.1492 15.3928 29.1251 15.3844C29.0363 15.3531 28.9486 15.3296 28.8622 15.3138V15.3113V15.3086V15.3059V15.3032V15.3005V15.2978V15.295V15.2922V15.2895V15.2867V15.2839V15.2811V15.2783V15.2755V15.2727V15.2698V15.267V15.2641V15.2612V15.2584V15.2555V15.2526V15.2497V15.2467V15.2438V15.2409V15.2379V15.2349V15.232V15.229V15.226V15.223V15.22V15.217V15.2139V15.2109V15.2078V15.2048V15.2017V15.1986V15.1955V15.1924V15.1893V15.1862V15.183V15.1799V15.1767V15.1736V15.1704V15.1672V15.164V15.1608V15.1576V15.1543V15.1511V15.1479V15.1446V15.1413V15.138V15.1347V15.1314V15.1281V15.1248V15.1215V15.1181V15.1148V15.1114V15.108V15.1047V15.1013V15.0978V15.0944V15.091V15.0876V15.0841V15.0807V15.0772V15.0737V15.0702V15.0667V15.0632V15.0597V15.0561V15.0526V15.049V15.0455V15.0419V15.0383V15.0347V15.0311V15.0275V15.0238V15.0202V15.0166V15.0129V15.0092V15.0055V15.0018V14.9981V14.9944V14.9907V14.987V14.9832V14.9794V14.9757V14.9719V14.9681V14.9643V14.9605V14.9567V14.9528V14.949V14.9451V14.9413V14.9374V14.9335V14.9296V14.9257V14.9218V14.9178V14.9139V14.9099V14.906V14.902V14.898V14.894V14.89V14.886V14.8819V14.8779V14.8738V14.8698V14.8657V14.8616V14.8575V14.8534V14.8493V14.8452V14.841V14.8369V14.8327V14.8285V14.8243V14.8201C28.8622 14.0599 28.6838 13.0289 28.3237 12.2503C28.1458 11.8655 27.896 11.4815 27.5451 11.248C27.2128 11.0269 26.8233 10.9645 26.4236 11.1004ZM19.4082 17.5981C19.6362 17.4596 19.9054 17.3452 20.2183 17.2754V13.8608C20.2183 13.3986 20.2404 12.8754 20.3094 12.3568C20.2375 12.375 20.1769 12.4067 20.1228 12.4465C19.9867 12.5466 19.8513 12.7303 19.7342 13.0145C19.4987 13.5865 19.4082 14.391 19.4082 15.1021V17.5981ZM21.2183 17.2008H21.221H21.2255H21.23H21.2345H21.2391H21.2436H21.2482H21.2527H21.2573H21.2619H21.2664H21.271H21.2756H21.2802H21.2848H21.2894H21.294H21.2986H21.3032H21.3079H21.3125H21.3171H21.3218H21.3264H21.3311H21.3357H21.3404H21.3451H21.3497H21.3544H21.3591H21.3638H21.3685H21.3732H21.3779H21.3826H21.3873H21.3921H21.3968H21.4015H21.4062H21.411H21.4157H21.4205H21.4252H21.43H21.4348H21.4396H21.4443H21.4491H21.4539H21.4587H21.4635H21.4683H21.4731H21.4779H21.4827H21.4876H21.4924H21.4972H21.502H21.5069H21.5117H21.5166H21.5214H21.5263H21.5312H21.536H21.5409H21.5458H21.5507H21.5556H21.5605H21.5654H21.5703H21.5752H21.5801H21.585H21.5899H21.5948H21.5998H21.6047H21.6096H21.6146H21.6195H21.6245H21.6294H21.6344H21.6394H21.6443H21.6493H21.6543H21.6593H21.6643H21.6693H21.6742H21.6792H21.6843H21.6893H21.6943H21.6993H21.7043H21.7093H21.7144H21.7194H21.7244H21.7295H21.7345H21.7396H21.7446H21.7497H21.7547H21.7598H21.7649H21.7699H21.775H21.7801H21.7852H21.7903H21.7954H21.8005H21.8056H21.8107H21.8158H21.8209H21.826H21.8311H21.8362H21.8414H21.8465H21.8516H21.8568H21.8619H21.867H21.8722H21.8773H21.8825H21.8877H21.8928H21.898H21.9031H21.9083H21.9135H21.9187H21.9239H21.929H21.9342H21.9394H21.9446H21.9498H21.955H21.9602H21.9654H21.9707H21.9759H21.9811H21.9863H21.9915H21.9968H22.002H22.0072H22.0125H22.0177H22.023H22.0282H22.0335H22.0387H22.044H22.0492H22.0545H22.0598H22.065H22.0703H22.0756H22.0808H22.0861H22.0914H22.0967H22.102H22.1073H22.1126H22.1179H22.1232H22.1285H22.1338H22.1391H22.1444H22.1497H22.155H22.1603H22.1657H22.171H22.1763H22.1816H22.187H22.1923H22.1976H22.203H22.2083H22.2137H22.219H22.2244H22.2297H22.2351H22.2404H22.2458H22.2512H22.2565H22.2619H22.2673H22.2726H22.278H22.2834H22.2888H22.2941H22.2995H22.3049H22.3103H22.3157H22.3211H22.3265H22.3319H22.3373H22.3427H22.3481H22.3535H22.3589H22.3643H22.3697H22.3751H22.3805H22.3859H22.3914H22.3968H22.4022H22.4076H22.413H22.4185H22.4239H22.4293H22.4348H22.4402H22.4456H22.4511H22.4565H22.462H22.4674H22.4729H22.4783H22.4837H22.4892H22.4947H22.5001H22.5056H22.511H22.5165H22.5219H22.5274H22.5329H22.5383H22.5438H22.5493H22.5547H22.5602H22.5657H22.5711H22.5766H22.5821H22.5876H22.5931H22.5985H22.604H22.6095H22.615H22.6205H22.626H22.6314H22.6322V11.5314C22.6322 11.1997 22.6403 10.8334 22.69 10.4759L22.6887 10.4757C22.3904 10.441 22.1862 10.5159 22.0249 10.6473C21.8482 10.7913 21.6893 11.0322 21.5598 11.3764C21.299 12.0698 21.2183 13.0161 21.2183 13.8608V17.2008Z" fill="#E86917"/>
<path fill-rule="evenodd" clip-rule="evenodd" d="M11.6574 10.1073C11.4515 9.76702 11.2533 9.68705 11.1078 9.70542C10.8242 9.74122 10.6548 9.89414 10.5338 10.1947C10.4008 10.5251 10.3561 10.98 10.3561 11.4778V16.6955C10.3561 16.9716 10.1322 17.1955 9.85609 17.1955C9.57995 17.1955 9.35609 16.9716 9.35609 16.6955V11.4778C9.35609 11.0942 9.37867 10.6624 9.47183 10.2564C9.35826 10.2489 9.25472 10.2528 9.16049 10.2645C8.82864 10.306 8.58452 10.5185 8.40562 10.9216C8.22193 11.3354 8.14366 11.8843 8.14366 12.415V16.8968C8.14366 17.1729 7.9198 17.3968 7.64366 17.3968C7.36752 17.3968 7.14366 17.1729 7.14366 16.8968V12.415C7.14366 12.3076 7.14637 12.197 7.1523 12.0845C6.62126 12.0281 6.3473 12.1958 6.19586 12.3434C5.98267 12.5511 5.93066 12.9162 5.93066 13.484V21.2292C5.93066 21.5343 5.95534 21.8139 6.02725 22.0702C6.25377 22.8774 6.70331 23.8035 7.57263 24.2472C8.02942 24.4804 8.60595 24.9836 8.53331 25.7353C8.43082 26.796 8.00536 27.7391 7.52824 28.4657C7.05619 29.1845 6.50502 29.7341 6.1014 29.991C5.86843 30.1392 5.55939 30.0705 5.41113 29.8376C5.26288 29.6046 5.33155 29.2955 5.56453 29.1473C5.8156 28.9875 6.27308 28.5552 6.69236 27.9167C7.10656 27.286 7.45509 26.4965 7.53795 25.6391C7.54465 25.5697 7.52552 25.4938 7.45669 25.4036C7.38395 25.3084 7.26576 25.2133 7.11799 25.1379C5.87069 24.5012 5.31517 23.2339 5.06444 22.3404C4.95844 21.9626 4.93066 21.5826 4.93066 21.2292V13.484C4.93066 12.9769 4.94136 12.1695 5.49801 11.6271C5.89247 11.2428 6.47825 10.9991 7.29516 11.0947C7.34535 10.895 7.40992 10.6999 7.49162 10.5159C7.75851 9.91458 8.24183 9.37147 9.03659 9.27224C9.30337 9.23893 9.59223 9.2464 9.9029 9.30597C10.1479 9.00121 10.498 8.77446 10.9825 8.7133C11.7092 8.62156 12.224 9.11211 12.513 9.58966C12.7742 10.0214 12.9308 10.5563 12.9643 11.0384C13.069 11.0079 13.1813 10.9863 13.3016 10.975C14.0858 10.9014 14.5685 11.4714 14.8178 11.9934C15.074 12.5298 15.1835 13.1896 15.1835 13.7152V13.7218V13.7284V13.735V13.7416V13.7482V13.7548V13.7613V13.7679V13.7744V13.7809V13.7875V13.794V13.8005V13.807V13.8135V13.82V13.8264V13.8329V13.8393V13.8458V13.8522V13.8587V13.8651V13.8715V13.8779V13.8843V13.8907V13.897V13.9034V13.9098V13.9161V13.9225V13.9288V13.9351V13.9414V13.9478V13.9541V13.9603V13.9666V13.9729V13.9792V13.9854V13.9917V13.9979V14.0041V14.0104V14.0166V14.0228V14.029V14.0351V14.0413V14.0475V14.0537V14.0598V14.0659V14.0721V14.0782V14.0843V14.0904V14.0965V14.1026V14.1087V14.1148V14.1208V14.1269V14.1329V14.139V14.145V14.151V14.157V14.163V14.169V14.175V14.181V14.1869V14.1929V14.1988V14.2048V14.2107V14.2166V14.2226V14.2285V14.2344V14.2402V14.2461V14.252V14.2578V14.2637V14.2695V14.2754V14.2812V14.287V14.2928V14.2986V14.3044V14.3102V14.316V14.3217V14.3275V14.3332V14.339V14.3447V14.3504V14.3561V14.3618V14.3675V14.3732V14.3788V14.3845V14.3902V14.3958V14.4014V14.4071V14.4127V14.4183V14.4239V14.4295V14.4351V14.4406V14.4462V14.4518V14.4573V14.4629V14.4684V14.4739V14.4794V14.4849V14.4904V14.4959V14.5014V14.5068V14.5123V14.5177V14.5232V14.5286V14.534V14.5394V14.5448V14.5502V14.5556V14.561V14.5663V14.5717V14.577V14.5824V14.5877V14.593V14.5983V14.6036V14.6089V14.6142V14.6195V14.6248V14.63V14.6353V14.6405V14.6457V14.6509V14.6561V14.6613V14.6665V14.6717V14.6769V14.6821V14.6872V14.6924V14.6975V14.7026V14.7077V14.7128V14.7179V14.723V14.7281V14.7332V14.7382V14.7433V14.7483V14.7534V14.7584V14.7634V14.7684V14.7734V14.7784V14.7834V14.7884V14.7933V14.7983V14.8032V14.8081V14.8131V14.818V14.8229V14.8278V14.8327V14.8375V14.8424V14.8473V14.8521V14.857V14.8618V14.8666V14.8714V14.8762V14.881V14.8858V14.8906V14.8953V14.9001V14.9048V14.9096V14.9143V14.919V14.9237V14.9284V14.9331V14.9378V14.9425V14.9471V14.9518V14.9564V14.961V14.9657V14.9703V14.9749V14.9795V14.9841V14.9886V14.9932V14.9978V15.0023V15.0068V15.0114V15.0159V15.0204V15.0249V15.0294V15.0339V15.0383V15.0428V15.0473V15.0517V15.0561V15.0606V15.065V15.0694V15.0738V15.0782V15.0825V15.0869V15.0913V15.0956V15.0999V15.1043V15.1086V15.1129V15.1172V15.1215V15.1258V15.13V15.1343V15.1386V15.1428V15.147V15.1513V15.1555V15.1597V15.1639V15.168V15.1722V15.1764V15.1805V15.1847V15.1888V15.193V15.1971V15.2012V15.2053V15.2094V15.2134V15.2175V15.2216V15.2256V15.2297V15.2337V15.2377V15.2417V15.2457V15.2497V15.2537V15.2577V15.2616V15.2656V15.2695V15.2734V15.2774V15.2813V15.2852V15.2891V15.293V15.2968V15.297C15.2955 15.3062 15.4052 15.3287 15.5117 15.3633C15.8344 15.4682 16.1 15.6742 16.3071 15.8935C16.9163 16.5383 16.9935 17.4363 16.9935 18.1239V21.9517C16.9935 22.7669 16.8425 23.7492 16.1266 24.4294C15.8553 24.6873 15.5173 24.9388 15.1114 25.127C14.6433 25.3441 14.3205 25.7961 14.332 26.1779C14.3734 27.5587 14.0751 29.073 13.6417 30.4085C13.2094 31.7405 12.627 32.9427 12.0659 33.6907C11.9003 33.9116 11.5869 33.9564 11.3659 33.7907C11.145 33.625 11.1003 33.3116 11.2659 33.0907C11.7387 32.4604 12.2785 31.3693 12.6905 30.0998C13.1013 28.8338 13.3693 27.4384 13.3324 26.2079C13.3052 25.3006 13.9888 24.5452 14.6907 24.2198C14.9808 24.0853 15.2303 23.9016 15.4378 23.7045C15.8474 23.3153 15.9935 22.6891 15.9935 21.9517V18.1239C15.9935 17.4572 15.901 16.9198 15.5802 16.5802C15.4446 16.4367 15.3152 16.351 15.2025 16.3143C15.1295 16.2906 15.0521 16.2831 14.962 16.3066C14.9119 16.3402 14.8553 16.3651 14.7946 16.3789C14.5816 16.5041 14.429 16.724 14.3261 17.0518C14.211 17.4188 14.1774 17.8647 14.1774 18.3117V18.3139V18.3162V18.3184V18.3206V18.3228V18.325V18.3272V18.3294V18.3316V18.3338V18.3361V18.3383V18.3405V18.3427V18.3449V18.3471V18.3493V18.3515V18.3537V18.3559V18.3581V18.3603V18.3625V18.3646V18.3668V18.369V18.3712V18.3734V18.3756V18.3778V18.38V18.3821V18.3843V18.3865V18.3887V18.3909V18.3931V18.3952V18.3974V18.3996V18.4018V18.4039V18.4061V18.4083V18.4105V18.4126V18.4148V18.417V18.4191V18.4213V18.4235V18.4256V18.4278V18.4299V18.4321V18.4343V18.4364V18.4386V18.4407V18.4429V18.445V18.4472V18.4493V18.4515V18.4537V18.4558V18.4579V18.4601V18.4622V18.4644V18.4665V18.4687V18.4708V18.473V18.4751V18.4772V18.4794V18.4815V18.4836V18.4858V18.4879V18.49V18.4922V18.4943V18.4964V18.4986V18.5007V18.5028V18.5049V18.5071V18.5092V18.5113V18.5134V18.5155V18.5177V18.5198V18.5219V18.524V18.5261V18.5282V18.5304V18.5325V18.5346V18.5367V18.5388V18.5409V18.543V18.5451V18.5472V18.5493V18.5514V18.5535V18.5556V18.5577V18.5598V18.5619V18.564V18.5661V18.5682V18.5703V18.5724V18.5745V18.5766V18.5787V18.5807V18.5828V18.5849V18.587V18.5891V18.5912V18.5932V18.5953V18.5974V18.5995V18.6016V18.6036V18.6057V18.6078V18.6099V18.6119V18.614V18.6161V18.6181V18.6202V18.6223V18.6243V18.6264V18.6285V18.6305V18.6326V18.6346V18.6367V18.6388V18.6408V18.6429V18.6449V18.647V18.649V18.6511V18.6531V18.6552V18.6572V18.6593V18.6613V18.6634V18.6654V18.6675V18.6695V18.6716V18.6736V18.6756V18.6777V18.6797V18.6817V18.6838V18.6858V18.6878V18.6899V18.6919V18.6939V18.696V18.698V18.7V18.7021V18.7041V18.7061V18.7081V18.7101V18.7122V18.7142V18.7162V18.7182V18.7202V18.7223V18.7243V18.7263V18.7283V18.7303V18.7323V18.7343V18.7363V18.7383V18.7403V18.7424V18.7444V18.7464V18.7484V18.7504V18.7524V18.7544V18.7564V18.7584V18.7603V18.7623V18.7643V18.7663V18.7683V18.7703V18.7723V18.7743V18.7763V18.7783V18.7802V18.7822V18.7842V18.7862V18.7882V18.7902V18.7921V18.7941V18.7961V18.7981V18.8V18.802V18.804V18.806V18.8079V18.8099V18.8119V18.8138V18.8158V18.8178V18.8197V18.8217V18.8237V18.8256V18.8276V18.8295V18.8315V18.8335V18.8354V18.8374V18.8393V18.8413V18.8432V18.8452V18.8471V18.8491V18.851V18.853V18.8549V18.8569V18.8588V18.8607V18.8627V18.8646V18.8666V18.8685V18.8704V18.8724V18.8743V18.8762V18.8782V18.8801V18.882V18.884V18.8859V18.8878V18.8898V18.8917V18.8936V18.8955V18.8974V18.8994V18.9013V18.9032V18.9051V18.907V18.909V18.9109V18.9128V18.9147V18.9166V18.9185V18.9204V18.9223V18.9243V18.9262V18.9281V18.93V18.9319V18.9338V18.9357V18.9376V18.9395V18.9414V18.9433V18.9452V18.9471V18.949V18.9509V18.9528V18.9546V18.9565V18.9584V18.9603V18.9622V18.9641V18.966V18.9679V18.9697V18.9716V18.9735V18.9754V18.9773V18.9791V18.981V18.9829V18.9848V18.9866V18.9885V18.9904V18.9922V18.9941V18.996V18.9979V18.9997V19.0016V19.0034V19.0053V19.0072V19.009V19.0109V19.0128V19.0146V19.0165V19.0183V19.0202V19.022V19.0239V19.0257V19.0276V19.0294V19.0313V19.0331V19.035V19.0368V19.0387V19.0405V19.0424V19.0442V19.046V19.0479V19.0497V19.0515V19.0534V19.0552V19.0571V19.0589V19.0607V19.0626V19.0644V19.0662V19.068V19.0699V19.0717V19.0735V19.0753V19.0772V19.079V19.0808V19.0826V19.0844V19.0863V19.0881V19.0899V19.0917V19.0935V19.0953V19.0971V19.0989V19.1008V19.1026V19.1044V19.1062V19.108V19.1098V19.1116V19.1134V19.1152V19.117V19.1188V19.1206V19.1224V19.1242V19.126V19.1278V19.1296V19.1313V19.1331V19.1349V19.1367V19.1385V19.1403V19.1421V19.1439V19.1456V19.1474V19.1492V19.151V19.1528V19.1545V19.1563V19.1581V19.1599V19.1616V19.1634V19.1652V19.1669V19.1687V19.1705V19.1723V19.174V19.1758V19.1775V19.1793V19.1811V19.1828V19.1846V19.1864V19.1881V19.1899V19.1916V19.1934V19.1951V19.1969V19.1986V19.2004V19.2021V19.2039V19.2056V19.2074V19.2091V19.2109V19.2126V19.2144V19.2161V19.2178V19.2196V19.2213V19.223V19.2248V19.2265V19.2283V19.23V19.2317V19.2334V19.2352V19.2369V19.2386V19.2404V19.2421V19.2438V19.2455V19.2473V19.249V19.2507V19.2524V19.2541V19.2558V19.2576V19.2593V19.261V19.2627V19.2644V19.2661V19.2678V19.2695V19.2713V19.273V19.2747V19.2764V19.2781V19.2798V19.2815V19.2832V19.2849V19.2866V19.2883V19.29V19.2917V19.2934V19.2951V19.2967V19.2984V19.3001V19.3018V19.3035V19.3052V19.3069V19.3086V19.3102C14.1774 19.5864 13.9536 19.8102 13.6774 19.8102C13.4013 19.8102 13.1774 19.5864 13.1774 19.3102V19.3086V19.3069V19.3052V19.3035V19.3018V19.3001V19.2984V19.2967V19.2951V19.2934V19.2917V19.29V19.2883V19.2866V19.2849V19.2832V19.2815V19.2798V19.2781V19.2764V19.2747V19.273V19.2713V19.2695V19.2678V19.2661V19.2644V19.2627V19.261V19.2593V19.2576V19.2558V19.2541V19.2524V19.2507V19.249V19.2473V19.2455V19.2438V19.2421V19.2404V19.2386V19.2369V19.2352V19.2334V19.2317V19.23V19.2283V19.2265V19.2248V19.223V19.2213V19.2196V19.2178V19.2161V19.2144V19.2126V19.2109V19.2091V19.2074V19.2056V19.2039V19.2021V19.2004V19.1986V19.1969V19.1951V19.1934V19.1916V19.1899V19.1881V19.1864V19.1846V19.1828V19.1811V19.1793V19.1775V19.1758V19.174V19.1723V19.1705V19.1687V19.1669V19.1652V19.1634V19.1616V19.1599V19.1581V19.1563V19.1545V19.1528V19.151V19.1492V19.1474V19.1456V19.1439V19.1421V19.1403V19.1385V19.1367V19.1349V19.1331V19.1313V19.1296V19.1278V19.126V19.1242V19.1224V19.1206V19.1188V19.117V19.1152V19.1134V19.1116V19.1098V19.108V19.1062V19.1044V19.1026V19.1008V19.0989V19.0971V19.0953V19.0935V19.0917V19.0899V19.0881V19.0863V19.0844V19.0826V19.0808V19.079V19.0772V19.0753V19.0735V19.0717V19.0699V19.068V19.0662V19.0644V19.0626V19.0607V19.0589V19.0571V19.0552V19.0534V19.0515V19.0497V19.0479V19.046V19.0442V19.0424V19.0405V19.0387V19.0368V19.035V19.0331V19.0313V19.0294V19.0276V19.0257V19.0239V19.022V19.0202V19.0183V19.0165V19.0146V19.0128V19.0109V19.009V19.0072V19.0053V19.0034V19.0016V18.9997V18.9979V18.996V18.9941V18.9922V18.9904V18.9885V18.9866V18.9848V18.9829V18.981V18.9791V18.9773V18.9754V18.9735V18.9716V18.9697V18.9679V18.966V18.9641V18.9622V18.9603V18.9584V18.9565V18.9546V18.9528V18.9509V18.949V18.9471V18.9452V18.9433V18.9414V18.9395V18.9376V18.9357V18.9338V18.9319V18.93V18.9281V18.9262V18.9243V18.9223V18.9204V18.9185V18.9166V18.9147V18.9128V18.9109V18.909V18.907V18.9051V18.9032V18.9013V18.8994V18.8974V18.8955V18.8936V18.8917V18.8898V18.8878V18.8859V18.884V18.882V18.8801V18.8782V18.8762V18.8743V18.8724V18.8704V18.8685V18.8666V18.8646V18.8627V18.8607V18.8588V18.8569V18.8549V18.853V18.851V18.8491V18.8471V18.8452V18.8432V18.8413V18.8393V18.8374V18.8354V18.8335V18.8315V18.8295V18.8276V18.8256V18.8237V18.8217V18.8197V18.8178V18.8158V18.8138V18.8119V18.8099V18.8079V18.806V18.804V18.802V18.8V18.7981V18.7961V18.7941V18.7921V18.7902V18.7882V18.7862V18.7842V18.7822V18.7802V18.7783V18.7763V18.7743V18.7723V18.7703V18.7683V18.7663V18.7643V18.7623V18.7603V18.7584V18.7564V18.7544V18.7524V18.7504V18.7484V18.7464V18.7444V18.7424V18.7403V18.7383V18.7363V18.7343V18.7323V18.7303V18.7283V18.7263V18.7243V18.7223V18.7202V18.7182V18.7162V18.7142V18.7122V18.7101V18.7081V18.7061V18.7041V18.7021V18.7V18.698V18.696V18.6939V18.6919V18.6899V18.6878V18.6858V18.6838V18.6817V18.6797V18.6777V18.6756V18.6736V18.6716V18.6695V18.6675V18.6654V18.6634V18.6613V18.6593V18.6572V18.6552V18.6531V18.6511V18.649V18.647V18.6449V18.6429V18.6408V18.6388V18.6367V18.6346V18.6326V18.6305V18.6285V18.6264V18.6243V18.6223V18.6202V18.6181V18.6161V18.614V18.6119V18.6099V18.6078V18.6057V18.6036V18.6016V18.5995V18.5974V18.5953V18.5932V18.5912V18.5891V18.587V18.5849V18.5828V18.5807V18.5787V18.5766V18.5745V18.5724V18.5703V18.5682V18.5661V18.564V18.5619V18.5598V18.5577V18.5556V18.5535V18.5514V18.5493V18.5472V18.5451V18.543V18.5409V18.5388V18.5367V18.5346V18.5325V18.5304V18.5282V18.5261V18.524V18.5219V18.5198V18.5177V18.5155V18.5134V18.5113V18.5092V18.5071V18.5049V18.5028V18.5007V18.4986V18.4964V18.4943V18.4922V18.49V18.4879V18.4858V18.4836V18.4815V18.4794V18.4772V18.4751V18.473V18.4708V18.4687V18.4665V18.4644V18.4622V18.4601V18.4579V18.4558V18.4537V18.4515V18.4493V18.4472V18.445V18.4429V18.4407V18.4386V18.4364V18.4343V18.4321V18.4299V18.4278V18.4256V18.4235V18.4213V18.4191V18.417V18.4148V18.4126V18.4105V18.4083V18.4061V18.4039V18.4018V18.3996V18.3974V18.3952V18.3931V18.3909V18.3887V18.3865V18.3843V18.3821V18.38V18.3778V18.3756V18.3734V18.3712V18.369V18.3668V18.3646V18.3625V18.3603V18.3581V18.3559V18.3537V18.3515V18.3493V18.3471V18.3449V18.3427V18.3405V18.3383V18.3361V18.3338V18.3316V18.3294V18.3272V18.325V18.3228V18.3206V18.3184V18.3162V18.3139V18.3117C13.1774 17.8334 13.2109 17.266 13.372 16.7524C13.5099 16.3129 13.7546 15.8748 14.1835 15.5826V15.5809V15.5779V15.5748V15.5717V15.5686V15.5655V15.5624V15.5593V15.5562V15.553V15.5499V15.5467V15.5435V15.5404V15.5372V15.534V15.5308V15.5275V15.5243V15.5211V15.5178V15.5146V15.5113V15.508V15.5047V15.5014V15.4981V15.4948V15.4914V15.4881V15.4848V15.4814V15.478V15.4746V15.4712V15.4678V15.4644V15.461V15.4576V15.4541V15.4507V15.4472V15.4438V15.4403V15.4368V15.4333V15.4298V15.4263V15.4227V15.4192V15.4156V15.4121V15.4085V15.4049V15.4013V15.3977V15.3941V15.3905V15.3869V15.3832V15.3796V15.3759V15.3723V15.3686V15.3649V15.3612V15.3575V15.3538V15.3501V15.3463V15.3426V15.3388V15.335V15.3313V15.3275V15.3237V15.3199V15.3161V15.3122V15.3084V15.3046V15.3007V15.2968V15.293V15.2891V15.2852V15.2813V15.2774V15.2734V15.2695V15.2656V15.2616V15.2577V15.2537V15.2497V15.2457V15.2417V15.2377V15.2337V15.2297V15.2256V15.2216V15.2175V15.2134V15.2094V15.2053V15.2012V15.1971V15.193V15.1888V15.1847V15.1805V15.1764V15.1722V15.168V15.1639V15.1597V15.1555V15.1513V15.147V15.1428V15.1386V15.1343V15.13V15.1258V15.1215V15.1172V15.1129V15.1086V15.1043V15.0999V15.0956V15.0913V15.0869V15.0825V15.0782V15.0738V15.0694V15.065V15.0606V15.0561V15.0517V15.0473V15.0428V15.0383V15.0339V15.0294V15.0249V15.0204V15.0159V15.0114V15.0068V15.0023V14.9978V14.9932V14.9886V14.9841V14.9795V14.9749V14.9703V14.9657V14.961V14.9564V14.9518V14.9471V14.9425V14.9378V14.9331V14.9284V14.9237V14.919V14.9143V14.9096V14.9048V14.9001V14.8953V14.8906V14.8858V14.881V14.8762V14.8714V14.8666V14.8618V14.857V14.8521V14.8473V14.8424V14.8375V14.8327V14.8278V14.8229V14.818V14.8131V14.8081V14.8032V14.7983V14.7933V14.7884V14.7834V14.7784V14.7734V14.7684V14.7634V14.7584V14.7534V14.7483V14.7433V14.7382V14.7332V14.7281V14.723V14.7179V14.7128V14.7077V14.7026V14.6975V14.6924V14.6872V14.6821V14.6769V14.6717V14.6665V14.6613V14.6561V14.6509V14.6457V14.6405V14.6353V14.63V14.6248V14.6195V14.6142V14.6089V14.6036V14.5983V14.593V14.5877V14.5824V14.577V14.5717V14.5663V14.561V14.5556V14.5502V14.5448V14.5394V14.534V14.5286V14.5232V14.5177V14.5123V14.5068V14.5014V14.4959V14.4904V14.4849V14.4794V14.4739V14.4684V14.4629V14.4573V14.4518V14.4462V14.4406V14.4351V14.4295V14.4239V14.4183V14.4127V14.4071V14.4014V14.3958V14.3902V14.3845V14.3788V14.3732V14.3675V14.3618V14.3561V14.3504V14.3447V14.339V14.3332V14.3275V14.3217V14.316V14.3102V14.3044V14.2986V14.2928V14.287V14.2812V14.2754V14.2695V14.2637V14.2578V14.252V14.2461V14.2402V14.2344V14.2285V14.2226V14.2166V14.2107V14.2048V14.1988V14.1929V14.1869V14.181V14.175V14.169V14.163V14.157V14.151V14.145V14.139V14.1329V14.1269V14.1208V14.1148V14.1087V14.1026V14.0965V14.0904V14.0843V14.0782V14.0721V14.0659V14.0598V14.0537V14.0475V14.0413V14.0351V14.029V14.0228V14.0166V14.0104V14.0041V13.9979V13.9917V13.9854V13.9792V13.9729V13.9666V13.9603V13.9541V13.9478V13.9414V13.9351V13.9288V13.9225V13.9161V13.9098V13.9034V13.897V13.8907V13.8843V13.8779V13.8715V13.8651V13.8587V13.8522V13.8458V13.8393V13.8329V13.8264V13.82V13.8135V13.807V13.8005V13.794V13.7875V13.7809V13.7744V13.7679V13.7613V13.7548V13.7482V13.7416V13.735V13.7284V13.7218V13.7152C14.1835 13.3015 14.093 12.7962 13.9154 12.4243C13.7309 12.0381 13.546 11.9565 13.395 11.9706C13.0905 11.9992 12.8984 12.1699 12.7604 12.5348C12.6128 12.9251 12.5685 13.4542 12.5685 14.0001V16.8971C12.5685 17.1732 12.3447 17.3971 12.0685 17.3971C11.7924 17.3971 11.5685 17.1732 11.5685 16.8971V14.0001C11.5685 13.4326 11.6099 12.7501 11.825 12.1811C11.866 12.0727 11.9144 11.9663 11.971 11.8642V11.864V11.8635V11.8631V11.8626V11.8622V11.8617V11.8612V11.8608V11.8603V11.8598V11.8594V11.8589V11.8584V11.8579V11.8574V11.857V11.8565V11.856V11.8555V11.855V11.8545V11.854V11.8535V11.8529V11.8524V11.8519V11.8514V11.8509V11.8503V11.8498V11.8493V11.8487V11.8482V11.8477V11.8471V11.8466V11.846V11.8455V11.8449V11.8443V11.8438V11.8432V11.8426V11.8421V11.8415V11.8409V11.8403V11.8397V11.8392V11.8386V11.838V11.8374V11.8368V11.8362V11.8356V11.835V11.8343V11.8337V11.8331V11.8325V11.8319V11.8312V11.8306V11.83V11.8293V11.8287V11.828V11.8274V11.8268V11.8261V11.8254V11.8248V11.8241V11.8235V11.8228V11.8221V11.8214V11.8208V11.8201V11.8194V11.8187V11.818V11.8173V11.8166V11.8159V11.8152V11.8145V11.8138V11.8131V11.8124V11.8117V11.811V11.8102V11.8095V11.8088V11.8081V11.8073V11.8066V11.8058V11.8051V11.8043V11.8036V11.8028V11.8021V11.8013V11.8005V11.7998V11.799V11.7982V11.7975V11.7967V11.7959V11.7951V11.7943V11.7935V11.7927V11.7919V11.7911V11.7903V11.7895V11.7887V11.7879V11.7871V11.7862V11.7854V11.7846V11.7838V11.7829V11.7821V11.7813V11.7804V11.7796V11.7787V11.7779V11.777V11.7761V11.7753V11.7744V11.7735V11.7727V11.7718V11.7709V11.77V11.7692V11.7683V11.7674V11.7665V11.7656V11.7647V11.7638V11.7629V11.762V11.761V11.7601V11.7592V11.7583V11.7574V11.7564V11.7555V11.7546V11.7536V11.7527V11.7517V11.7508V11.7498V11.7489V11.7479V11.747V11.746V11.745V11.744V11.7431V11.7421V11.7411V11.7401V11.7391V11.7381V11.7371V11.7361V11.7351V11.7341V11.7331V11.7321V11.7311V11.7301V11.7291V11.728V11.727V11.726V11.725V11.7239V11.7229V11.7218V11.7208V11.7197V11.7187V11.7176V11.7166V11.7155V11.7144V11.7134V11.7123V11.7112V11.7101V11.709V11.708V11.7069V11.7058V11.7047V11.7036V11.7025V11.7014V11.7003V11.6991V11.698V11.6969V11.6958V11.6947V11.6935V11.6924V11.6913V11.6901V11.689V11.6878V11.6867V11.6855V11.6844V11.6832V11.6821V11.6809V11.6797V11.6785V11.6774V11.6762V11.675V11.6738V11.6726V11.6714V11.6702V11.669V11.6678V11.6666V11.6654V11.6642V11.663V11.6618V11.6605V11.6593V11.6581V11.6568V11.6556V11.6544V11.6531V11.6519V11.6506V11.6494V11.6481V11.6469V11.6456V11.6443V11.6431V11.6418V11.6405V11.6392V11.6379V11.6366V11.6354V11.6341V11.6328V11.6315V11.6302V11.6288V11.6275V11.6262V11.6249V11.6236V11.6223V11.6209V11.6196V11.6183V11.6169V11.6156V11.6142V11.6129V11.6115V11.6102V11.6088V11.6074V11.6061V11.6047V11.6033V11.602V11.6006V11.5992V11.5978V11.5964V11.595V11.5936V11.5922V11.5908V11.5894V11.588V11.5866V11.5852V11.5837V11.5823V11.5809V11.5795V11.578V11.5766V11.5751V11.5737V11.5722V11.5708V11.5693V11.5679V11.5664V11.5649V11.5635V11.562V11.5605V11.559V11.5576V11.5561V11.5546V11.5531V11.5516V11.5501V11.5486V11.5471V11.5456V11.544V11.5425V11.541V11.5395V11.5379V11.5364V11.5349V11.5333V11.5318V11.5302V11.5287V11.5271V11.5256V11.524V11.5224V11.5209V11.5193V11.5177V11.5161V11.5146V11.513V11.5114V11.5098V11.5082V11.5066V11.505V11.5034V11.5018V11.5002V11.4985V11.4969V11.4953V11.4937V11.492V11.4904V11.4888V11.4871V11.4855V11.4838V11.4822V11.4805V11.4788V11.4772V11.4755V11.4738V11.4722V11.4705V11.4688V11.4671V11.4654V11.4637V11.462V11.4603V11.4586V11.4569V11.4552V11.4535V11.4518V11.45V11.4483V11.4466V11.4449V11.4431V11.4414V11.4396V11.4379V11.4361V11.4344V11.4326V11.4309V11.4291V11.4273V11.4256V11.4238V11.422V11.4202V11.4184V11.4166V11.4148V11.413V11.4112V11.4094V11.4076V11.4058V11.404V11.4022V11.4003V11.3985V11.3967V11.3949V11.393V11.3912V11.3893V11.3875V11.3856V11.3838V11.3819V11.38V11.3782V11.3763V11.3744V11.3726V11.3707V11.3688V11.3669V11.365V11.3631V11.3612V11.3593V11.3574V11.3555V11.3536V11.3516V11.3497V11.3478V11.3459V11.3439V11.342V11.34V11.3381V11.3362V11.3342V11.3322V11.3303V11.3283V11.3264V11.3244V11.3224V11.3204V11.3184V11.3165V11.3145V11.3125V11.3105V11.3085V11.3065V11.3045V11.3024V11.3004V11.2984V11.2964V11.2944V11.2923V11.2903V11.2883V11.2862V11.2842V11.2821V11.2801V11.278V11.276V11.2739V11.2718V11.2697V11.2677V11.2656V11.2635V11.2614V11.2593V11.2572V11.2551V11.253V11.2509V11.2488V11.2467V11.2446V11.2425V11.2403V11.2382V11.2361V11.2339V11.2318V11.2297C11.971 10.878 11.8559 10.4354 11.6574 10.1073Z" fill="#E86917"/>
<path d="M17.7007 4.42578L17.7007 7.24187" stroke="#E86917" stroke-linecap="round"/>
<path d="M20.8994 5.63257L18.9081 7.62385" stroke="#E86917" stroke-linecap="round"/>
<path d="M14.4824 5.64258L16.4737 7.63386" stroke="#E86917" stroke-linecap="round"/>
</svg>
