<svg width="268" height="268" viewBox="0 0 268 268" fill="none" xmlns="http://www.w3.org/2000/svg">
<circle cx="134" cy="134" r="133" fill="white" stroke="#E86917" stroke-width="2"/>
<path fill-rule="evenodd" clip-rule="evenodd" d="M186.665 69.9661C183.414 70.4732 180.552 72.4857 178.609 74.517C177.946 75.2091 177.625 76.172 177.625 77.1827V135.038H177.638H177.71H177.783H177.855H177.927H177.999H178.071H178.143H178.215H178.287H178.359H178.431H178.503H178.575H178.647H178.719H178.791H178.863H178.935H179.007H179.079H179.15H179.222H179.294H179.366H179.437H179.509H179.581H179.652H179.724H179.795H179.867H179.938H180.01H180.081H180.153H180.224H180.295H180.367H180.438H180.509H180.58H180.652H180.723H180.794H180.865H180.936H181.007H181.078H181.148H181.219H181.29H181.361H181.431H181.502H181.573H181.643H181.714H181.784H181.855H181.925H181.995H182.066H182.136H182.206H182.276H182.346H182.416H182.486H182.556H182.626H182.696H182.765H182.835H182.905H182.974H183.044H183.113H183.182H183.252H183.321H183.39H183.459H183.528H183.597H183.666H183.735H183.804H183.873H183.941H184.01H184.079H184.147H184.215H184.284H184.352H184.42H184.488H184.556H184.624H184.692H184.76H184.828H184.895H184.963H185.03H185.098H185.165H185.232H185.3H185.367H185.434H185.501H185.567H185.634H185.701H185.767H185.834H185.9H185.967H186.033H186.099H186.165H186.231H186.297H186.363H186.429H186.494H186.56H186.625H186.691H186.756H186.821H186.886H186.951H187.016H187.081H187.145H187.21H187.275H187.339H187.403H187.467H187.531H187.595H187.659H187.723H187.787H187.85H187.914H187.977H188.04H188.103H188.166H188.229H188.292H188.355H188.417H188.48H188.542H188.605H188.667H188.729H188.791H188.852H188.914H188.976H189.037H189.098H189.16H189.221H189.282H189.343H189.403H189.464H189.524H189.585H189.645H189.705H189.765H189.825H189.885H189.944H190.004H190.063H190.122H190.181H190.24H190.299H190.358H190.416H190.475H190.533H190.591H190.649H190.707H190.765H190.823H190.88H190.938H190.995H191.052H191.109H191.166H191.222H191.279H191.335H191.392H191.448H191.504H191.559H191.615H191.671H191.726H191.781H191.836H191.891H191.946H192.001H192.055H192.109H192.164H192.218H192.271H192.325H192.379H192.432H192.485H192.538H192.591H192.644H192.697H192.749H192.802H192.854H192.906H192.958H193.009H193.061H193.112H193.163H193.214H193.265H193.316H193.366H193.417H193.467H193.517H193.567H193.616C194.443 135.038 195.11 134.369 195.11 133.538V99.0091C195.11 97.6437 195.38 96.2524 196.086 95.0296C196.674 94.0112 197.378 92.9744 198.189 92.0131V92.0099V91.9978V91.9856V91.9732V91.9607V91.948V91.9353V91.9223V91.9093V91.8961V91.8827V91.8693V91.8556V91.8419V91.828V91.814V91.7998V91.7855V91.771V91.7565V91.7417V91.7269V91.7118V91.6967V91.6814V91.6659V91.6504V91.6346V91.6188V91.6028V91.5866V91.5703V91.5539V91.5373V91.5205V91.5037V91.4866V91.4695V91.4522V91.4347V91.4171V91.3993V91.3814V91.3634V91.3452V91.3268V91.3083V91.2897V91.2709V91.252V91.2329V91.2136V91.1942V91.1747V91.155V91.1351V91.1152V91.095V91.0747V91.0543V91.0337V91.0129V90.992V90.9709V90.9497V90.9283V90.9068V90.8851V90.8633V90.8413V90.8192V90.7969V90.7744V90.7518V90.729V90.7061V90.683V90.6598V90.6364V90.6128V90.5891V90.5652V90.5412V90.517V90.4926V90.4681V90.4435V90.4186V90.3936V90.3685V90.3432V90.3177V90.2921V90.2663V90.2403V90.2142V90.1879V90.1614V90.1348V90.108V90.0811V90.054V90.0267V89.9993V89.9717V89.9439V89.9159V89.8878V89.8596V89.8311V89.8025V89.7738V89.7448V89.7157V89.6865V89.657V89.6274V89.5976V89.5677V89.5375V89.5073V89.4768V89.4462V89.4154V89.3844V89.3532V89.3219V89.2904V89.2588V89.2269V89.1949V89.1628V89.1304V89.0979V89.0652V89.0323V88.9993V88.966V88.9326V88.899V88.8653V88.8314V88.7973V88.763V88.7285V88.6939V88.6591V88.6241V88.5889V88.5536V88.518V88.4823V88.4464V88.4104V88.3741V88.3377V88.3011V88.2643V88.2273V88.1902V88.1529V88.1153V88.0776V88.0398V88.0017V87.9635V87.925V87.8864V87.8476V87.8086V87.7695V87.7301V87.6906V87.6509V87.611V87.5709V87.5306V87.4901V87.4495V87.4086V87.3676V87.3264V87.285V87.2434V87.2016V87.1596V87.1175V87.0751V87.0326V86.9898V86.9469V86.9038V86.8605V86.817V86.7733V86.7295V86.6854V86.6411V86.5967V86.552V86.5072V86.4621V86.4169V86.3715V86.3259V86.2801V86.234V86.1878V86.1414V86.0948V86.048V86.0011V85.9539V85.9065V85.8589V85.8111V85.7632V85.715V85.6666V85.618V85.5693V85.5203V85.4711V85.4217V85.3722V85.3224V85.2724V85.2222V85.1719V85.1213V85.0705V85.0195V84.9683V84.9169V84.8654V84.8136V84.7616V84.7094V84.6569V84.6043V84.5515V84.4985V84.4453V84.3918V84.3382V84.2843V84.2303V84.176V84.1215V84.0669V84.012V83.9569V83.9016V83.8461V83.7903V83.7344V83.6783V83.6219V83.5653V83.5086V83.4516V83.3944V83.337V83.2794V83.2215V83.1635V83.1052V83.0468V82.9881V82.9292V82.8701V82.8108V82.7512V82.6915V82.6315V82.5713V82.5109V82.4503V82.3895V82.3284V82.2672V82.2057V82.144V82.0821V82.0199V81.9576V81.895V81.8322V81.7692V81.706V81.6425V81.5788V81.515V81.4508V81.3865V81.322V81.2572V81.1922V81.127V81.0615V80.9959V80.93V80.8639V80.7975V80.731V80.6642V80.5972V80.53V80.4625V80.3948V80.3269V80.2588V80.1904V80.1219V80.053V79.984V79.9147V79.8452V79.7755V79.7056V79.6354V79.565V79.4944V79.4235V79.3524V79.2811V79.2095V79.1377V79.0657V78.9935V78.921V78.8483V78.7753V78.7022V78.6287V78.5551V78.4812V78.4071V78.3328V78.2582V78.1834V78.1083V78.0331V77.9576V77.8818V77.8058V77.7296V77.6531V77.5764V77.4995V77.4223V77.3449V77.2673V77.1894C198.189 76.181 197.861 75.1997 197.212 74.4793C193.554 70.4193 189.877 69.465 186.665 69.9661ZM199.189 90.9237V90.9068V90.8851V90.8633V90.8413V90.8192V90.7969V90.7744V90.7518V90.729V90.7061V90.683V90.6598V90.6364V90.6128V90.5891V90.5652V90.5412V90.517V90.4926V90.4681V90.4435V90.4186V90.3936V90.3685V90.3432V90.3177V90.2921V90.2663V90.2403V90.2142V90.1879V90.1614V90.1348V90.108V90.0811V90.054V90.0267V89.9993V89.9717V89.9439V89.9159V89.8878V89.8596V89.8311V89.8025V89.7738V89.7448V89.7157V89.6865V89.657V89.6274V89.5976V89.5677V89.5375V89.5073V89.4768V89.4462V89.4154V89.3844V89.3532V89.3219V89.2904V89.2588V89.2269V89.1949V89.1628V89.1304V89.0979V89.0652V89.0323V88.9993V88.966V88.9326V88.899V88.8653V88.8314V88.7973V88.763V88.7285V88.6939V88.6591V88.6241V88.5889V88.5536V88.518V88.4823V88.4464V88.4104V88.3741V88.3377V88.3011V88.2643V88.2273V88.1902V88.1529V88.1153V88.0776V88.0398V88.0017V87.9635V87.925V87.8864V87.8476V87.8086V87.7695V87.7301V87.6906V87.6509V87.611V87.5709V87.5306V87.4901V87.4495V87.4086V87.3676V87.3264V87.285V87.2434V87.2016V87.1596V87.1175V87.0751V87.0326V86.9898V86.9469V86.9038V86.8605V86.817V86.7733V86.7295V86.6854V86.6411V86.5967V86.552V86.5072V86.4621V86.4169V86.3715V86.3259V86.2801V86.234V86.1878V86.1414V86.0948V86.048V86.0011V85.9539V85.9065V85.8589V85.8111V85.7632V85.715V85.6666V85.618V85.5693V85.5203V85.4711V85.4217V85.3722V85.3224V85.2724V85.2222V85.1719V85.1213V85.0705V85.0195V84.9683V84.9169V84.8654V84.8136V84.7616V84.7094V84.6569V84.6043V84.5515V84.4985V84.4453V84.3918V84.3382V84.2843V84.2303V84.176V84.1215V84.0669V84.012V83.9569V83.9016V83.8461V83.7903V83.7344V83.6783V83.6219V83.5653V83.5086V83.4516V83.3944V83.337V83.2794V83.2215V83.1635V83.1052V83.0468V82.9881V82.9292V82.8701V82.8108V82.7512V82.6915V82.6315V82.5713V82.5109V82.4503V82.3895V82.3284V82.2672V82.2057V82.144V82.0821V82.0199V81.9576V81.895V81.8322V81.7692V81.706V81.6425V81.5788V81.515V81.4508V81.3865V81.322V81.2572V81.1922V81.127V81.0615V80.9959V80.93V80.8639V80.7975V80.731V80.6642V80.5972V80.53V80.4625V80.3948V80.3269V80.2588V80.1904V80.1219V80.053V79.984V79.9147V79.8452V79.7755V79.7056V79.6354V79.565V79.4944V79.4235V79.3524V79.2811V79.2095V79.1377V79.0657V78.9935V78.921V78.8483V78.7753V78.7022V78.6287V78.5551V78.4812V78.4071V78.3328V78.2582V78.1834V78.1083V78.0331V77.9576V77.8818V77.8058V77.7296V77.6531V77.5764V77.4995V77.4223V77.3449V77.2673V77.1894C199.189 75.974 198.794 74.7418 197.955 73.81C194.098 69.5287 190.095 68.419 186.511 68.978C182.967 69.5309 179.918 71.7024 177.886 73.8257C177.206 74.5364 176.822 75.437 176.684 76.3724C172.282 75.2508 168.623 75.8883 165.732 77.3749C162.727 78.92 160.581 81.3669 159.281 83.6429C158.364 85.2477 158.142 87.0943 158.142 88.8475V90.2731C152.049 89.3583 147.603 93.3429 145.518 96.28C144.548 97.6465 144.282 99.3076 144.282 100.881V144.777H144.304C144.289 144.887 144.282 144.996 144.282 145.104V166.343V166.369L144.285 166.395C144.788 171.174 146.768 178.245 151.077 184.292C155.395 190.355 162.065 195.398 171.91 196.039C172.798 196.096 173.49 196.835 173.469 197.696C172.876 221.636 182.46 243.28 187.485 251.32L188.333 250.79C183.383 242.87 173.881 221.417 174.468 197.721C174.504 196.296 173.37 195.131 171.975 195.041C162.486 194.424 156.071 189.579 151.891 183.712C147.709 177.842 145.776 170.958 145.282 166.316V145.104C145.282 144.939 145.308 144.787 145.359 144.653C146.508 141.655 150.878 136.038 160.185 136.038H160.238H160.292H160.345H160.399H160.453H160.507H160.561H160.615H160.67H160.725H160.779H160.834H160.89H160.945H161H161.056H161.112H161.167H161.223H161.28H161.336H161.392H161.449H161.505H161.562H161.619H161.676H161.734H161.791H161.849H161.906H161.964H162.022H162.08H162.138H162.197H162.255H162.314H162.373H162.431H162.49H162.55H162.609H162.668H162.728H162.787H162.847H162.907H162.967H163.027H163.088H163.148H163.208H163.269H163.33H163.391H163.452H163.513H163.574H163.635H163.697H163.758H163.82H163.882H163.944H164.006H164.068H164.13H164.193H164.255H164.318H164.381H164.444H164.507H164.57H164.633H164.696H164.759H164.823H164.886H164.95H165.014H165.078H165.142H165.206H165.27H165.334H165.399H165.463H165.528H165.593H165.657H165.722H165.787H165.852H165.918H165.983H166.048H166.114H166.179H166.245H166.311H166.377H166.443H166.509H166.575H166.641H166.707H166.774H166.84H166.907H166.973H167.04H167.107H167.174H167.24H167.308H167.375H167.442H167.509H167.576H167.644H167.711H167.779H167.847H167.914H167.982H168.05H168.118H168.186H168.254H168.323H168.391H168.459H168.528H168.596H168.665H168.733H168.802H168.871H168.939H169.008H169.077H169.146H169.215H169.285H169.354H169.423H169.492H169.562H169.631H169.701H169.77H169.84H169.91H169.979H170.049H170.119H170.189H170.259H170.329H170.399H170.469H170.539H170.609H170.68H170.75H170.82H170.891H170.961H171.032H171.102H171.173H171.244H171.314H171.385H171.456H171.527H171.598H171.669H171.74H171.811H171.882H171.953H172.024H172.095H172.166H172.237H172.309H172.38H172.451H172.523H172.594H172.666H172.737H172.808H172.88H172.952H173.023H173.095H173.166H173.238H173.31H173.382H173.453H173.525H173.597H173.669H173.741H173.813H173.884H173.956H174.028H174.1H174.172H174.244H174.316H174.388H174.46H174.532H174.605H174.677H174.749H174.821H174.893H174.965H175.037H175.11H175.182H175.254H175.326H175.398H175.471H175.543H175.615H175.687H175.76H175.832H175.904H175.976H176.049H176.121H176.193H176.266H176.338H176.41H176.482H176.555H176.627H176.699H176.771H176.844H176.916H176.988H177.061H177.133H177.205H177.277H177.349H177.422H177.494H177.566H177.638H177.71H177.783H177.855H177.927H177.999H178.071H178.143H178.215H178.287H178.359H178.431H178.503H178.575H178.647H178.719H178.791H178.863H178.935H179.007H179.079H179.15H179.222H179.294H179.366H179.437H179.509H179.581H179.652H179.724H179.795H179.867H179.938H180.01H180.081H180.153H180.224H180.295H180.367H180.438H180.509H180.58H180.652H180.723H180.794H180.865H180.936H181.007H181.078H181.148H181.219H181.29H181.361H181.431H181.502H181.573H181.643H181.714H181.784H181.855H181.925H181.995H182.066H182.136H182.206H182.276H182.346H182.416H182.486H182.556H182.626H182.696H182.765H182.835H182.905H182.974H183.044H183.113H183.182H183.252H183.321H183.39H183.459H183.528H183.597H183.666H183.735H183.804H183.873H183.941H184.01H184.079H184.147H184.215H184.284H184.352H184.42H184.488H184.556H184.624H184.692H184.76H184.828H184.895H184.963H185.03H185.098H185.165H185.232H185.3H185.367H185.434H185.501H185.567H185.634H185.701H185.767H185.834H185.9H185.967H186.033H186.099H186.165H186.231H186.297H186.363H186.429H186.494H186.56H186.625H186.691H186.756H186.821H186.886H186.951H187.016H187.081H187.145H187.21H187.275H187.339H187.403H187.467H187.531H187.595H187.659H187.723H187.787H187.85H187.914H187.977H188.04H188.103H188.166H188.229H188.292H188.355H188.417H188.48H188.542H188.605H188.667H188.729H188.791H188.852H188.914H188.976H189.037H189.098H189.16H189.221H189.282H189.343H189.403H189.464H189.524H189.585H189.645H189.705H189.765H189.825H189.885H189.944H190.004H190.063H190.122H190.181H190.24H190.299H190.358H190.416H190.475H190.533H190.591H190.649H190.707H190.765H190.823H190.88H190.938H190.995H191.052H191.109H191.166H191.222H191.279H191.335H191.392H191.448H191.504H191.559H191.615H191.671H191.726H191.781H191.836H191.891H191.946H192.001H192.055H192.109H192.164H192.218H192.271H192.325H192.379H192.432H192.485H192.538H192.591H192.644H192.697H192.749H192.802H192.854H192.906H192.958H193.009H193.061H193.112H193.163H193.214H193.265H193.316H193.366H193.417H193.467H193.517H193.567H193.616C194.999 136.038 196.11 134.917 196.11 133.538V99.0091C196.11 97.7698 196.356 96.5625 196.952 95.5294C197.538 94.5134 198.231 93.5045 199.014 92.586L199.189 92.586V92.586V92.5859V92.5858V92.5856V92.5855V92.5853V92.5851V92.5849V92.5846V92.5843V92.584V92.5836V92.5833V92.5828V92.5825V92.582V92.5815V92.581V92.5805V92.5799V92.5794V92.5787V92.5782V92.5773V92.5768V92.5759V92.5754V92.5744V92.5739V92.5727V92.5722V92.571V92.5705V92.5691V92.5686V92.5671V92.5667V92.565V92.5647V92.5628V92.5625V92.5605V92.5603V92.558V92.5579V92.5555V92.553V92.5528V92.5503V92.5501V92.5476V92.5472V92.5448V92.5442V92.5418V92.5411V92.5388V92.5378V92.5357V92.5345V92.5325V92.531V92.5291V92.5275V92.5257V92.5238V92.5222V92.52V92.5186V92.5161V92.5149V92.512V92.5111V92.5079V92.5072V92.5036V92.5032V92.4992V92.4991V92.495V92.4947V92.4907V92.4901V92.4863V92.4853V92.4819V92.4805V92.4773V92.4755V92.4727V92.4704V92.4679V92.4652V92.4631V92.4598V92.4582V92.4544V92.4532V92.4488V92.4481V92.4431V92.4429V92.4376V92.4373V92.4322V92.4313V92.4268V92.4253V92.4212V92.4191V92.4156V92.4128V92.4098V92.4064V92.3998V92.3931V92.3863V92.3839C200.655 90.7168 202.425 89.3779 204.398 88.8889C207.438 88.1354 211.198 89.3565 215.354 95.1852C216.25 96.4426 216.673 98.0087 216.673 99.5889V99.6851V99.7811V99.8769V99.9723V100.068V100.162V100.257V100.352V100.446V100.54V100.633V100.727V100.82V100.913V101.005V101.098V101.19V101.282V101.373V101.465V101.556V101.647V101.737V101.828V101.918V102.008V102.097V102.186V102.275V102.364V102.453V102.541V102.629V102.717V102.805V102.892V102.979V103.066V103.152V103.238V103.324V103.41V103.496V103.581V103.666V103.751V103.835V103.92V104.004V104.088V104.171V104.254V104.337V104.42V104.503V104.585V104.667V104.749V104.83V104.912V104.993V105.074V105.154V105.235V105.315V105.395V105.474V105.553V105.633V105.711V105.79V105.868V105.947V106.024V106.102V106.18V106.257V106.334V106.41V106.487V106.563V106.639V106.715V106.79V106.865V106.94V107.015V107.09V107.164V107.238V107.312V107.385V107.459V107.532V107.604V107.677V107.749V107.822V107.893V107.965V108.037V108.108V108.179V108.249V108.32V108.39V108.46V108.53V108.599V108.669V108.738V108.807V108.875V108.944V109.012V109.08V109.147V109.215V109.282V109.349V109.416V109.482V109.548V109.614V109.68V109.746V109.811V109.876V109.941V110.006V110.07V110.135V110.199V110.262V110.326V110.389V110.452V110.515V110.578V110.64V110.702V110.764V110.826V110.887V110.948V111.009V111.07V111.131V111.191V111.251V111.311V111.371V111.43V111.49V111.549V111.607V111.666V111.724V111.782V111.84V111.898V111.955V112.013V112.07V112.126V112.183V112.239V112.295V112.351V112.407V112.462V112.518V112.573V112.627V112.682V112.736V112.79V112.844V112.898V112.952V113.005V113.058V113.111V113.163V113.216V113.268V113.32V113.372V113.423V113.474V113.526V113.576V113.627V113.678V113.728V113.778V113.828V113.877V113.927V113.976V114.025V114.074V114.122V114.17V114.219V114.267V114.314V114.362V114.409V114.456V114.503V114.55V114.596V114.642V114.688V114.734V114.78V114.825V114.87V114.915V114.96V115.004V115.049V115.093V115.137V115.181V115.224V115.267V115.311V115.353V115.396V115.439V115.481V115.523V115.565V115.607V115.648V115.689V115.73V115.771V115.812V115.852V115.893V115.933V115.972V116.012V116.051V116.091V116.13V116.169V116.207V116.246V116.284V116.322V116.36V116.397V116.435V116.472V116.509V116.546V116.583V116.619V116.655V116.691V116.727V116.763V116.798V116.833V116.869V116.903V116.938V116.973V117.007V117.041V117.075V117.108V117.142V117.175V117.208V117.241V117.274V117.306V117.339V117.371V117.403V117.435V117.466V117.498V117.529V117.56V117.591V117.621V117.652V117.682V117.712V117.742V117.771V117.801V117.83V117.859V117.888V117.917V117.945V117.974V118.002V118.03V118.057V118.085V118.112V118.14V118.167V118.193V118.22V118.246V118.273V118.299V118.325V118.35V118.376V118.401V118.427V118.451V118.476V118.501V118.525V118.55V118.574V118.598V118.621V118.645V118.668V118.691V118.714V118.737V118.76V118.782V118.804V118.826V118.848V118.87V118.891V118.913V118.934V118.955V118.976V118.996V119.017V119.037V119.057V119.077V119.097V119.116V119.136V119.155V119.174V119.193V119.212V119.23V119.249V119.267V119.285V119.303V119.32V119.338V119.355V119.372V119.389V119.406V119.422V119.439V119.455V119.471V119.487V119.503V119.518V119.534V119.549V119.564V119.579V119.594V119.608V119.623V119.637V119.651V119.665V119.678V119.692V119.705V119.718V119.731V119.744V119.757V119.77V119.782V119.794V119.806V119.818V119.83V119.841V119.853V119.864V119.875V119.886V119.896V119.907V119.917V119.927V119.938V119.947V119.957V119.967V119.976V119.985V119.994V120.003V120.012V120.021V120.029V120.037V120.045V120.053V120.061V120.069V120.076V120.084V120.091V120.098V120.104V120.111V120.118V120.124V120.13V120.135V120.136V120.141V120.142V120.147V120.148V120.152V120.153V120.157V120.159V120.162V120.164V120.167V120.169V120.172V120.174V120.177V120.179V120.181V120.184V120.186V120.188V120.19V120.192V120.194V120.196V120.198V120.201V120.202V120.204V120.206V120.208V120.209V120.212V120.213V120.215V120.216V120.218V120.219V120.221V120.222V120.224V120.225V120.227V120.228V120.23V120.23V120.232V120.233V120.234V120.235V120.237V120.237V120.239V120.239V120.241V120.241V120.242V120.242V120.244V120.244V120.245V120.245V120.247V120.247V120.248V120.248V120.249V120.249V120.25V120.251V120.251V120.251L217.673 120.251V120.251V120.251V120.25V120.249V120.249V120.248V120.248V120.247V120.247V120.245V120.245V120.244V120.244V120.242V120.242V120.241V120.241V120.239V120.239V120.237V120.237V120.235V120.234V120.233V120.232V120.23V120.23V120.228V120.227V120.225V120.224V120.222V120.221V120.219V120.218V120.216V120.215V120.213V120.212V120.209V120.208V120.206V120.204V120.202V120.201V120.198V120.196V120.194V120.192V120.19V120.188V120.186V120.184V120.181V120.179V120.177V120.174V120.172V120.169V120.167V120.164V120.162V120.159V120.157V120.153V120.152V120.148V120.147V120.142V120.141V120.136V120.135V120.13V120.124V120.118V120.111V120.104V120.098V120.091V120.084V120.076V120.069V120.061V120.053V120.045V120.037V120.029V120.021V120.012V120.003V119.994V119.985V119.976V119.967V119.957V119.947V119.938V119.927V119.917V119.907V119.896V119.886V119.875V119.864V119.853V119.841V119.83V119.818V119.806V119.794V119.782V119.77V119.757V119.744V119.731V119.718V119.705V119.692V119.678V119.665V119.651V119.637V119.623V119.608V119.594V119.579V119.564V119.549V119.534V119.518V119.503V119.487V119.471V119.455V119.439V119.422V119.406V119.389V119.372V119.355V119.338V119.32V119.303V119.285V119.267V119.249V119.23V119.212V119.193V119.174V119.155V119.136V119.116V119.097V119.077V119.057V119.037V119.017V118.996V118.976V118.955V118.934V118.913V118.891V118.87V118.848V118.826V118.804V118.782V118.76V118.737V118.714V118.691V118.668V118.645V118.621V118.598V118.574V118.55V118.525V118.501V118.476V118.451V118.427V118.401V118.376V118.35V118.325V118.299V118.273V118.246V118.22V118.193V118.167V118.14V118.112V118.085V118.057V118.03V118.002V117.974V117.945V117.917V117.888V117.859V117.83V117.801V117.771V117.742V117.712V117.682V117.652V117.621V117.591V117.56V117.529V117.498V117.466V117.435V117.403V117.371V117.339V117.306V117.274V117.241V117.208V117.175V117.142V117.108V117.075V117.041V117.007V116.973V116.938V116.903V116.869V116.833V116.798V116.763V116.727V116.691V116.655V116.619V116.583V116.546V116.509V116.472V116.435V116.397V116.36V116.322V116.284V116.246V116.207V116.169V116.13V116.091V116.051V116.012V115.972V115.933V115.893V115.852V115.812V115.771V115.73V115.689V115.648V115.607V115.565V115.523V115.481V115.439V115.396V115.353V115.311V115.267V115.224V115.181V115.137V115.093V115.049V115.004V114.96V114.915V114.87V114.825V114.78V114.734V114.688V114.642V114.596V114.55V114.503V114.456V114.409V114.362V114.314V114.267V114.219V114.17V114.122V114.074V114.025V113.976V113.927V113.877V113.828V113.778V113.728V113.678V113.627V113.576V113.526V113.474V113.423V113.372V113.32V113.268V113.216V113.163V113.111V113.058V113.005V112.952V112.898V112.844V112.79V112.736V112.682V112.627V112.573V112.518V112.462V112.407V112.351V112.295V112.239V112.183V112.126V112.07V112.013V111.955V111.898V111.84V111.782V111.724V111.666V111.607V111.549V111.49V111.43V111.371V111.311V111.251V111.191V111.131V111.07V111.009V110.948V110.887V110.826V110.764V110.702V110.64V110.578V110.515V110.452V110.389V110.326V110.262V110.199V110.135V110.07V110.006V109.941V109.876V109.811V109.746V109.68V109.614V109.548V109.482V109.416V109.349V109.282V109.215V109.147V109.08V109.012V108.944V108.875V108.807V108.738V108.669V108.599V108.53V108.46V108.39V108.32V108.249V108.179V108.108V108.037V107.965V107.893V107.822V107.749V107.677V107.604V107.532V107.459V107.385V107.312V107.238V107.164V107.09V107.015V106.94V106.865V106.79V106.715V106.639V106.563V106.487V106.41V106.334V106.257V106.18V106.102V106.024V105.947V105.868V105.79V105.711V105.633V105.553V105.474V105.395V105.315V105.235V105.154V105.074V104.993V104.912V104.83V104.749V104.667V104.585V104.503V104.42V104.337V104.254V104.171V104.088V104.004V103.92V103.835V103.751V103.666V103.581V103.496V103.41V103.324V103.238V103.152V103.066V102.979V102.892V102.805V102.717V102.629V102.541V102.453V102.364V102.275V102.186V102.097V102.008V101.918V101.828V101.737V101.647V101.556V101.465V101.373V101.282V101.19V101.098V101.005V100.913V100.82V100.727V100.633V100.54V100.446V100.352V100.257V100.162V100.068V99.9723V99.8769V99.7811V99.6851V99.5889C217.673 97.838 217.205 96.0596 216.168 94.6047C211.894 88.6111 207.765 87.0241 204.157 87.9182C202.277 88.3842 200.605 89.5119 199.189 90.9237ZM145.282 142.574C147.298 139.256 151.938 135.038 160.185 135.038H160.238H160.292H160.345H160.399H160.453H160.507H160.561H160.615H160.67H160.725H160.779H160.834H160.89H160.945H161H161.056H161.112H161.167H161.223H161.28H161.336H161.392H161.449H161.505H161.562H161.619H161.676H161.734H161.791H161.849H161.906H161.964H162.022H162.08H162.138H162.197H162.255H162.314H162.373H162.431H162.49H162.55H162.609H162.668H162.728H162.787H162.847H162.907H162.967H163.027H163.088H163.148H163.208H163.269H163.33H163.391H163.452H163.513H163.574H163.635H163.697H163.758H163.82H163.882H163.944H164.006H164.068H164.13H164.193H164.255H164.318H164.381H164.444H164.507H164.57H164.633H164.696H164.759H164.823H164.886H164.95H165.014H165.078H165.142H165.206H165.27H165.334H165.399H165.463H165.528H165.593H165.657H165.722H165.787H165.852H165.918H165.983H166.048H166.114H166.179H166.245H166.311H166.377H166.443H166.509H166.575H166.641H166.707H166.774H166.84H166.907H166.973H167.04H167.107H167.174H167.24H167.308H167.375H167.442H167.509H167.576H167.644H167.711H167.779H167.847H167.914H167.982H168.05H168.118H168.186H168.254H168.323H168.391H168.459H168.528H168.596H168.665H168.733H168.802H168.871H168.939H169.008H169.077H169.146H169.215H169.285H169.354H169.423H169.492H169.562H169.631H169.701H169.77H169.84H169.91H169.979H170.049H170.119H170.189H170.259H170.329H170.399H170.469H170.539H170.609H170.68H170.75H170.82H170.891H170.961H171.032H171.102H171.173H171.244H171.314H171.385H171.456H171.527H171.598H171.669H171.74H171.811H171.882H171.953H172.024H172.095H172.166H172.237H172.309H172.38H172.451H172.523H172.594H172.666H172.737H172.808H172.88H172.952H173.023H173.095H173.166H173.238H173.31H173.382H173.453H173.525H173.597H173.669H173.741H173.813H173.884H173.956H174.028H174.1H174.172H174.244H174.316H174.388H174.46H174.532H174.605H174.677H174.749H174.821H174.893H174.965H175.037H175.11H175.182H175.254H175.326H175.398H175.471H175.543H175.615H175.687H175.76H175.832H175.904H175.976H176.049H176.121H176.193H176.266H176.338H176.41H176.482H176.555H176.625V77.3904C172.37 76.2609 168.9 76.8704 166.189 78.2642C163.391 79.7034 161.374 81.9946 160.149 84.1388C159.36 85.5208 159.142 87.161 159.142 88.8475V134.961H158.142V91.2854C152.517 90.3675 148.345 94.0255 146.333 96.859C145.536 97.9821 145.282 99.4004 145.282 100.881V142.574ZM179.153 166.473C179.225 166.206 179.068 165.931 178.802 165.859C178.535 165.786 178.26 165.943 178.188 166.209C175.796 174.979 181.001 183.261 189.189 188.329C197.167 193.268 208.108 195.257 218.068 191.756C217.091 197.75 218.38 203.681 220.409 208.692C222.536 213.946 225.494 218.23 227.584 220.581C227.767 220.788 228.083 220.806 228.29 220.623C228.496 220.439 228.515 220.123 228.331 219.917C226.314 217.647 223.418 213.46 221.336 208.317C219.272 203.221 218.023 197.227 219.174 191.248C220.988 189.681 223.702 187.105 226.137 184.305C228.614 181.455 230.872 178.296 231.52 175.704C231.83 174.463 232.013 171.968 232.114 168.776C232.215 165.563 232.234 161.587 232.2 157.346C232.132 148.861 231.853 139.297 231.601 132.608C231.556 131.409 231.269 130.215 230.645 129.153C228.672 125.791 225.519 122.103 221.666 120.858C219.719 120.229 217.603 120.228 215.408 121.196C213.224 122.158 210.997 124.064 208.779 127.185C207.851 128.49 207.431 130.087 207.431 131.653L207.431 141.961L207.431 147.859C207.431 148.135 207.655 148.359 207.931 148.359C208.208 148.359 208.431 148.135 208.431 147.859L208.431 141.961L208.431 131.653C208.431 130.258 208.806 128.872 209.594 127.764C211.746 124.737 213.844 122.978 215.811 122.111C217.768 121.248 219.63 121.251 221.358 121.809C224.858 122.94 227.849 126.365 229.783 129.659C230.308 130.552 230.561 131.578 230.602 132.646C230.854 139.329 231.132 148.883 231.2 157.354C231.234 161.589 231.215 165.55 231.114 168.745C231.013 171.96 230.829 174.343 230.55 175.461C229.966 177.798 227.859 180.799 225.382 183.649C222.953 186.443 220.234 189.017 218.451 190.551C208.627 194.294 197.664 192.4 189.715 187.479C181.73 182.536 176.923 174.646 179.153 166.473Z" fill="#E86917"/>
<path fill-rule="evenodd" clip-rule="evenodd" d="M84.5855 71.0201C81.9959 71.3636 79.747 72.8162 77.7048 74.3669C77.469 74.546 77.2547 74.7475 77.0635 74.9674C77.0923 74.9755 77.1211 74.9836 77.1499 74.9919C77.4154 75.0677 77.5692 75.3445 77.4933 75.61C77.4174 75.8755 77.1407 76.0293 76.8752 75.9534C76.74 75.9148 76.6057 75.8777 76.4722 75.8422C76.148 76.4739 75.974 77.1855 75.974 77.9168V127.839C75.974 128.115 75.7502 128.339 75.474 128.339C75.1979 128.339 74.974 128.115 74.974 127.839V77.9168C74.974 77.1106 75.1481 76.3204 75.4773 75.6023C71.6311 74.772 68.5295 75.2454 66.0732 76.248C63.3163 77.3733 61.3405 79.1787 60.0299 80.6303C59.3637 81.3682 59.0298 82.3572 59.0298 83.3874V129.381C59.0298 129.657 58.8059 129.881 58.5298 129.881C58.2536 129.881 58.0298 129.657 58.0298 129.381V89.7297C52.6444 88.4623 49.0709 89.3391 46.6907 90.8788C44.2395 92.4645 42.9748 94.804 42.3259 96.4595C42.1573 96.8897 42.0852 97.3591 42.0852 97.8484V165.852C42.0852 166.15 42.1131 166.44 42.1731 166.725C43.7749 174.352 48.292 187.085 61.0027 190.332C61.6269 190.492 62.1194 191.035 62.1525 191.713C62.572 200.301 59.674 208.183 55.9857 214.351C52.3025 220.511 47.7991 225.015 44.9341 226.838C44.7011 226.986 44.3921 226.918 44.2438 226.685C44.0956 226.452 44.1643 226.143 44.3972 225.995C47.0981 224.276 51.5017 219.902 55.1274 213.838C58.7479 207.783 61.5608 200.097 61.1537 191.762C61.1436 191.556 60.9878 191.361 60.7552 191.301C47.4288 187.897 42.8031 174.59 41.1945 166.931C41.1191 166.572 41.0852 166.213 41.0852 165.852V97.8484C41.0852 97.2629 41.1712 96.665 41.3949 96.0945C42.0823 94.3408 43.4498 91.7843 46.1476 90.0392C48.7637 88.3468 52.5577 87.464 58.0298 88.7034V83.3874C58.0298 82.1468 58.4322 80.9077 59.2877 79.9601C60.6534 78.4475 62.7477 76.5253 65.6953 75.3221C68.4091 74.2144 71.8193 73.7275 76.0044 74.6955C76.3082 74.2734 76.6752 73.8931 77.1 73.5705C79.1602 72.0061 81.5876 70.409 84.454 70.0288C87.353 69.6443 90.6083 70.5133 94.3012 73.6785C95.4345 74.6499 95.997 76.0957 95.997 77.5458V77.5951V77.6443V77.6934V77.7424V77.7913V77.8401V77.8888V77.9374V77.9859V78.0343V78.0826V78.1308V78.1789V78.2268V78.2747V78.3225V78.3702V78.4178V78.4652V78.5126V78.5599V78.607V78.6541V78.7011V78.748V78.7947V78.8414V78.888V78.9344V78.9808V79.0271V79.0732V79.1193V79.1653V79.2111V79.2569V79.3026V79.3481V79.3936V79.439V79.4842V79.5294V79.5745V79.6194V79.6643V79.7091V79.7537V79.7983V79.8428V79.8872V79.9314V79.9756V80.0197V80.0637V80.1075V80.1513V80.195V80.2386V80.2821V80.3254V80.3687V80.4119V80.455V80.498V80.5409V80.5837V80.6264V80.669V80.7115V80.7539V80.7962V80.8384V80.8805V80.9225V80.9644V81.0063V81.048V81.0896V81.1311V81.1726V81.2139V81.2551V81.2963V81.3373V81.3783V81.4191V81.4599V81.5005V81.5411V81.5815V81.6219V81.6622V81.7023V81.7424V81.7824V81.8223V81.8621V81.9017V81.9413V81.9808V82.0202V82.0596V82.0988V82.1379V82.1769V82.2158V82.2547V82.2934V82.332V82.3706V82.409V82.4474V82.4856V82.5238V82.5619V82.5999V82.6377V82.6755V82.7132V82.7508V82.7883V82.8257V82.863V82.9002V82.9374V82.9744V83.0113V83.0482V83.0849V83.1216V83.1581V83.1946V83.231V83.2673V83.3035V83.3396V83.3756V83.4115V83.4473V83.483V83.5186V83.5541V83.5896V83.6249V83.6602V83.6954V83.7304V83.7654V83.8003V83.8351V83.8698V83.9044V83.9389V83.9733V84.0076V84.0419V84.076V84.1101V84.144V84.1779V84.2117V84.2454V84.279V84.3125V84.3459V84.3792V84.4124V84.4456V84.4786V84.5116V84.5444V84.5772V84.6099V84.6425V84.675V84.7074V84.7397V84.7719V84.8041V84.8361V84.8681V84.8999V84.9317V84.9634V84.995V85.0265V85.0579V85.0892V85.1205V85.1516V85.1826V85.2136V85.2445V85.2753V85.306V85.3366V85.3671V85.3975V85.4278V85.4581V85.4883V85.5183V85.5483V85.5782V85.608V85.6377V85.6673V85.6969V85.7263V85.7557V85.785V85.8141V85.8432V85.8722V85.9011V85.93V85.9587V85.9874V86.0159V86.0444V86.0728V86.1011V86.1293V86.1574V86.1855V86.2134V86.2413V86.2691V86.2967V86.3244V86.3519V86.3793V86.4066V86.4339V86.461V86.4881V86.5151V86.542V86.5688V86.5956V86.6222V86.6488V86.6752V86.7016V86.7279V86.7541V86.7803V86.8063V86.8323V86.8581V86.8839V86.9096V86.9352V86.9607V86.9862V87.0115V87.0368V87.062V87.0871V87.1121V87.137V87.1619V87.1866V87.2113V87.2359V87.2604V87.2848V87.3091V87.3334V87.3575V87.3816V87.4056V87.4295V87.4534V87.4771V87.5008V87.5243V87.5478V87.5712V87.5945V87.6178V87.6409V87.664V87.687V87.7099V87.7327V87.7554V87.7781V87.8006V87.8231V87.8455V87.8678V87.8901V87.9122V87.9343V87.9563V87.9782V88V88.0217V88.0434V88.065V88.0865V88.1079V88.1292V88.1504V88.1716V88.1927V88.2137V88.2346V88.2554V88.2762V88.2968V88.3174V88.3379V88.3583V88.3787V88.3989V88.4191V88.4392V88.4592V88.4792V88.499V88.5188V88.5385V88.5581V88.5776V88.597V88.6164V88.6357V88.6549V88.674V88.6931V88.712V88.7309V88.7497V88.7684V88.7871V88.8056V88.8241V88.8425V88.8608V88.8791V88.8972V88.9153V88.9333V88.9512V88.9691V88.9868V89.0045V89.0221V89.0397V89.0571V89.0745V89.0918V89.109V89.1261V89.1431V89.1601V89.177V89.1938V89.2106V89.2272V89.2438V89.2603V89.2767V89.2931V89.3093V89.3255V89.3416V89.3576V89.3736V89.3895V89.4053V89.421V89.4366V89.4522V89.4677V89.4831V89.4984V89.5137V89.5288V89.5439V89.559V89.5739V89.5888V89.6036V89.6183V89.6329V89.6475V89.6619V89.6763V89.6907V89.7049V89.7191V89.7332V89.7472V89.7612V89.775V89.7888V89.8026V89.8162V89.8298V89.8433V89.8567V89.87V89.8833V89.8965V89.9096V89.9226V89.9356V89.9485V89.9537C97.7081 88.6924 99.6308 87.7065 101.696 87.4055C104.948 86.9314 108.424 88.1705 111.845 92.3593C112.587 93.2683 112.934 94.4205 112.934 95.5605V95.6419V95.7231V95.8043V95.8853V95.9663V96.0471V96.1278V96.2084V96.2889V96.3693V96.4496V96.5298V96.6099V96.6899V96.7697V96.8495V96.9291V97.0087V97.0881V97.1674V97.2467V97.3258V97.4048V97.4837V97.5625V97.6412V97.7197V97.7982V97.8765V97.9548V98.0329V98.111V98.1889V98.2667V98.3444V98.422V98.4995V98.5769V98.6542V98.7313V98.8084V98.8853V98.9622V99.0389V99.1155V99.192V99.2684V99.3447V99.4209V99.4969V99.5729V99.6487V99.7245V99.8001V99.8756V99.951V100.026V100.102V100.177V100.252V100.326V100.401V100.476V100.55V100.625V100.699V100.773V100.847V100.921V100.995V101.069V101.143V101.216V101.289V101.363V101.436V101.509V101.582V101.655V101.728V101.8V101.873V101.945V102.017V102.09V102.162V102.234V102.305V102.377V102.449V102.52V102.592V102.663V102.734V102.805V102.876V102.947V103.018V103.088V103.159V103.229V103.299V103.37V103.44V103.509V103.579V103.649V103.719V103.788V103.857V103.927V103.996V104.065V104.134V104.202V104.271V104.34V104.408V104.476V104.545V104.613V104.681V104.748V104.816V104.884V104.951V105.019V105.086V105.153V105.22V105.287V105.354V105.421V105.487V105.554V105.62V105.686V105.752V105.818V105.884V105.95V106.016V106.081V106.147V106.212V106.277V106.342V106.407V106.472V106.537V106.601V106.666V106.73V106.795V106.859V106.923V106.987V107.05V107.114V107.178V107.241V107.304V107.367V107.431V107.493V107.556V107.619V107.682V107.744V107.806V107.869V107.931V107.993V108.055V108.117V108.178V108.24V108.301V108.362V108.424V108.485V108.546V108.606V108.667V108.728V108.788V108.848V108.909V108.969V109.029V109.089V109.148V109.208V109.267V109.327V109.386V109.445V109.504V109.563V109.622V109.68V109.739V109.797V109.856V109.914V109.972V110.03V110.088V110.145V110.203V110.26V110.318V110.375V110.432V110.489V110.546V110.602V110.659V110.715V110.772V110.828V110.884V110.94V110.996V111.052V111.107V111.163V111.218V111.273V111.328V111.383V111.438V111.493V111.548V111.602V111.656V111.711V111.765V111.819V111.873V111.926V111.98V112.034V112.087V112.14V112.193V112.246V112.299V112.352V112.405V112.457V112.509V112.562V112.614V112.666V112.718V112.769V112.821V112.873V112.924V112.975V113.026V113.077V113.128V113.179V113.23V113.28V113.331V113.381V113.431V113.481V113.531V113.581V113.63V113.68V113.729V113.778V113.827V113.876V113.925V113.974V114.023V114.071V114.119V114.168V114.216V114.264V114.312V114.359V114.407V114.454V114.502V114.549V114.596V114.643V114.69V114.736V114.783V114.829V114.876V114.922V114.968V115.014V115.06V115.105V115.151V115.196V115.242V115.287V115.332V115.377V115.421V115.466V115.511V115.555V115.599V115.643V115.687V115.731V115.775V115.819V115.862V115.905V115.949V115.992V116.035V116.077V116.12V116.163V116.205V116.247V116.29V116.332V116.374V116.415V116.457V116.498V116.54V116.581V116.622V116.663V116.704V116.745V116.785V116.826V116.866V116.906V116.947V116.986V117.026V117.066V117.105V117.145V117.184V117.223V117.262V117.301V117.34V117.379V117.417V117.455V117.494V117.532V117.57V117.607V117.645V117.683V117.72V117.757V117.795V117.832V117.868V117.905V117.942V117.978V118.015V118.051V118.087V118.123V118.159V118.194V118.23V118.265V118.301V118.336V118.371V118.406V118.44V118.475V118.509V118.544V118.578V118.612V118.646V118.68V118.713V118.747V118.78V118.814V118.847V118.88V118.913V118.945V118.978V119.01V119.043V119.075V119.107V119.139V119.17V119.202V119.234V119.265V119.296V119.327V119.358V119.389V119.42V119.45V119.48V119.511V119.541V119.571V119.601V119.63V119.66V119.689V119.719V119.748V119.777V119.806V119.834V119.863V119.891V119.92V119.948V119.976V120.004V120.032V120.059V120.087V120.114V120.141V120.169V120.195V120.222V120.249V120.275V120.302V120.328V120.354V120.38V120.406V120.432V120.457V120.483V120.508V120.533V120.558V120.583V120.607V120.632V120.656V120.681V120.705V120.729V120.753V120.776V120.8V120.824V120.833C114.741 120.227 116.46 120.325 118.041 120.904C119.918 121.591 121.572 122.947 122.957 124.544C124.345 126.145 125.484 128.013 126.324 129.769C126.653 130.456 126.796 131.202 126.796 131.943V175.943C126.796 176.791 126.61 177.648 126.168 178.408C123.609 182.808 116.906 190.852 106.024 191.45C105.672 191.47 105.426 191.794 105.491 192.116C107.629 202.691 105.956 215.624 102.632 227.398C99.3078 239.173 94.3103 249.869 89.7304 255.975C89.5647 256.196 89.2513 256.241 89.0304 256.075C88.8095 255.91 88.7647 255.596 88.9304 255.375C93.4128 249.399 98.3662 238.828 101.67 227.126C104.974 215.423 106.604 202.667 104.511 192.314C104.321 191.371 105.032 190.503 105.969 190.452C116.359 189.88 122.816 182.182 125.303 177.906C125.641 177.324 125.796 176.648 125.796 175.943V131.943C125.796 131.33 125.678 130.735 125.422 130.201C124.612 128.507 123.519 126.719 122.202 125.2C120.882 123.678 119.36 122.452 117.697 121.843C116.216 121.3 114.603 121.237 112.873 121.919C112.788 122.075 112.623 122.18 112.434 122.18C112.392 122.18 112.351 122.175 112.312 122.165L112.285 122.178C110.314 123.135 108.169 125.082 105.917 128.455C105.463 129.135 105.233 129.956 105.233 130.792V130.833V130.874V130.915V130.956V130.998V131.039V131.08V131.121V131.162V131.203V131.244V131.285V131.326V131.366V131.407V131.448V131.489V131.53V131.57V131.611V131.652V131.692V131.733V131.773V131.814V131.854V131.895V131.935V131.976V132.016V132.056V132.097V132.137V132.177V132.217V132.257V132.298V132.338V132.378V132.418V132.458V132.498V132.538V132.578V132.618V132.657V132.697V132.737V132.777V132.817V132.856V132.896V132.936V132.975V133.015V133.054V133.094V133.133V133.173V133.212V133.252V133.291V133.33V133.37V133.409V133.448V133.487V133.527V133.566V133.605V133.644V133.683V133.722V133.761V133.8V133.839V133.878V133.917V133.956V133.994V134.033V134.072V134.111V134.149V134.188V134.227V134.265V134.304V134.342V134.381V134.419V134.458V134.496V134.535V134.573V134.611V134.649V134.688V134.726V134.764V134.802V134.84V134.879V134.917V134.955V134.993V135.031V135.069V135.106V135.144V135.182V135.22V135.258V135.296V135.333V135.371V135.409V135.446V135.484V135.521V135.559V135.596V135.634V135.671V135.709V135.746V135.784V135.821V135.858V135.895V135.933V135.97V136.007V136.044V136.081V136.118V136.155V136.192V136.229V136.266V136.303V136.34V136.377V136.414V136.451V136.487V136.524V136.561V136.597V136.634V136.671V136.707V136.744V136.78V136.817V136.853V136.89V136.926V136.962V136.999V137.035V137.071V137.108V137.144V137.18V137.216V137.252V137.288V137.324V137.36V137.396V137.432V137.468V137.504V137.54V137.576V137.612V137.647V137.683V137.719V137.754V137.79V137.826V137.861V137.897V137.932V137.968V138.003V138.039V138.074V138.11V138.145V138.18V138.215V138.251V138.286V138.321V138.356V138.391V138.426V138.462V138.497V138.532V138.566V138.601V138.636V138.671V138.706V138.741V138.776V138.81V138.845V138.88V138.914V138.949V138.984V139.018V139.053V139.087V139.122V139.156V139.191V139.225V139.259V139.294V139.328V139.362V139.396V139.431V139.465V139.499V139.533V139.567V139.601V139.635V139.669V139.703V139.737V139.771V139.805V139.838V139.872V139.906V139.94V139.973V140.007V140.041V140.074V140.108V140.141V140.175V140.208V140.242V140.275V140.309V140.342V140.375V140.408V140.442V140.475V140.508V140.541V140.574V140.608V140.641V140.674V140.707V140.74V140.773V140.806V140.838V140.871V140.904V140.937V140.97V141.002V141.035V141.068V141.1V141.133V141.166V141.198V141.231V141.263V141.296V141.328V141.36V141.393V141.425V141.457V141.49V141.522V141.554V141.586V141.618V141.65V141.683V141.715V141.747V141.779V141.811V141.842V141.874V141.906V141.938V141.97V142.002V142.033V142.065V142.097V142.128V142.16V142.192V142.223V142.255V142.286V142.318V142.349V142.38V142.412V142.443V142.474V142.506V142.537V142.568V142.599V142.631V142.662V142.693V142.724V142.755V142.786V142.817V142.848V142.879V142.909V142.94V142.971V143.002V143.033V143.063V143.094V143.125V143.155V143.186V143.216V143.247V143.277V143.308V143.338V143.369V143.399V143.429V143.46V143.49V143.52V143.551V143.581V143.611V143.641V143.671V143.701V143.731V143.761V143.791V143.821V143.851V143.881V143.911V143.941V143.97V144V144.03V144.06V144.089V144.119V144.148V144.178V144.207V144.237V144.266V144.296V144.325V144.355V144.384V144.413V144.443V144.472V144.501V144.53V144.56V144.589V144.618V144.647V144.676V144.705V144.734V144.763V144.792V144.821V144.849V144.878V144.907V144.936V144.965V144.993V145.022V145.051V145.079V145.108V145.136V145.165V145.193V145.222V145.25V145.279V145.307V145.335V145.363V145.392V145.42V145.448V145.476V145.505V145.533V145.561V145.589V145.617V145.645V145.673V145.701V145.729V145.756V145.784V145.812V145.84V145.867V145.895V145.923V145.951V145.978V146.006V146.033V146.061V146.088V146.116V146.143V146.171V146.198V146.225V146.253V146.28V146.307V146.334V146.361V146.389V146.416V146.443V146.47V146.497V146.524V146.551V146.578V146.605V146.632V146.658V146.685V146.712V146.739V146.765V146.792V146.819V146.845V146.872V146.899V146.925V146.952V146.978V147.004V147.031V147.057V147.084V147.11V147.136V147.162V147.189V147.215V147.241V147.267V147.293V147.319V147.345V147.371V147.397V147.423V147.449V147.475V147.501V147.527V147.552V147.578V147.604V147.63V147.655V147.681V147.706V147.732V147.758V147.783V147.809V147.834V147.859C105.233 148.135 105.009 148.359 104.733 148.359C104.457 148.359 104.233 148.135 104.233 147.859V147.834V147.809V147.783V147.758V147.732V147.706V147.681V147.655V147.63V147.604V147.578V147.552V147.527V147.501V147.475V147.449V147.423V147.397V147.371V147.345V147.319V147.293V147.267V147.241V147.215V147.189V147.162V147.136V147.11V147.084V147.057V147.031V147.004V146.978V146.952V146.925V146.899V146.872V146.845V146.819V146.792V146.765V146.739V146.712V146.685V146.658V146.632V146.605V146.578V146.551V146.524V146.497V146.47V146.443V146.416V146.389V146.361V146.334V146.307V146.28V146.253V146.225V146.198V146.171V146.143V146.116V146.088V146.061V146.033V146.006V145.978V145.951V145.923V145.895V145.867V145.84V145.812V145.784V145.756V145.729V145.701V145.673V145.645V145.617V145.589V145.561V145.533V145.505V145.476V145.448V145.42V145.392V145.363V145.335V145.307V145.279V145.25V145.222V145.193V145.165V145.136V145.108V145.079V145.051V145.022V144.993V144.965V144.936V144.907V144.878V144.849V144.821V144.792V144.763V144.734V144.705V144.676V144.647V144.618V144.589V144.56V144.53V144.501V144.472V144.443V144.413V144.384V144.355V144.325V144.296V144.266V144.237V144.207V144.178V144.148V144.119V144.089V144.06V144.03V144V143.97V143.941V143.911V143.881V143.851V143.821V143.791V143.761V143.731V143.701V143.671V143.641V143.611V143.581V143.551V143.52V143.49V143.46V143.429V143.399V143.369V143.338V143.308V143.277V143.247V143.216V143.186V143.155V143.125V143.094V143.063V143.033V143.002V142.971V142.94V142.909V142.879V142.848V142.817V142.786V142.755V142.724V142.693V142.662V142.631V142.599V142.568V142.537V142.506V142.474V142.443V142.412V142.38V142.349V142.318V142.286V142.255V142.223V142.192V142.16V142.128V142.097V142.065V142.033V142.002V141.97V141.938V141.906V141.874V141.842V141.811V141.779V141.747V141.715V141.683V141.65V141.618V141.586V141.554V141.522V141.49V141.457V141.425V141.393V141.36V141.328V141.296V141.263V141.231V141.198V141.166V141.133V141.1V141.068V141.035V141.002V140.97V140.937V140.904V140.871V140.838V140.806V140.773V140.74V140.707V140.674V140.641V140.608V140.574V140.541V140.508V140.475V140.442V140.408V140.375V140.342V140.309V140.275V140.242V140.208V140.175V140.141V140.108V140.074V140.041V140.007V139.973V139.94V139.906V139.872V139.838V139.805V139.771V139.737V139.703V139.669V139.635V139.601V139.567V139.533V139.499V139.465V139.431V139.396V139.362V139.328V139.294V139.259V139.225V139.191V139.156V139.122V139.087V139.053V139.018V138.984V138.949V138.914V138.88V138.845V138.81V138.776V138.741V138.706V138.671V138.636V138.601V138.566V138.532V138.497V138.462V138.426V138.391V138.356V138.321V138.286V138.251V138.215V138.18V138.145V138.11V138.074V138.039V138.003V137.968V137.932V137.897V137.861V137.826V137.79V137.754V137.719V137.683V137.647V137.612V137.576V137.54V137.504V137.468V137.432V137.396V137.36V137.324V137.288V137.252V137.216V137.18V137.144V137.108V137.071V137.035V136.999V136.962V136.926V136.89V136.853V136.817V136.78V136.744V136.707V136.671V136.634V136.597V136.561V136.524V136.487V136.451V136.414V136.377V136.34V136.303V136.266V136.229V136.192V136.155V136.118V136.081V136.044V136.007V135.97V135.933V135.895V135.858V135.821V135.784V135.746V135.709V135.671V135.634V135.596V135.559V135.521V135.484V135.446V135.409V135.371V135.333V135.296V135.258V135.22V135.182V135.144V135.106V135.069V135.031V134.993V134.955V134.917V134.879V134.84V134.802V134.764V134.726V134.688V134.649V134.611V134.573V134.535V134.496V134.458V134.419V134.381V134.342V134.304V134.265V134.227V134.188V134.149V134.111V134.072V134.033V133.994V133.956V133.917V133.878V133.839V133.8V133.761V133.722V133.683V133.644V133.605V133.566V133.527V133.487V133.448V133.409V133.37V133.33V133.291V133.252V133.212V133.173V133.133V133.094V133.054V133.015V132.975V132.936V132.896V132.856V132.817V132.777V132.737V132.697V132.657V132.618V132.578V132.538V132.498V132.458V132.418V132.378V132.338V132.298V132.257V132.217V132.177V132.137V132.097V132.056V132.016V131.976V131.935V131.895V131.854V131.814V131.773V131.733V131.692V131.652V131.611V131.57V131.53V131.489V131.448V131.407V131.366V131.326V131.285V131.244V131.203V131.162V131.121V131.08V131.039V130.998V130.956V130.915V130.874V130.833V130.792C104.233 129.776 104.512 128.758 105.085 127.899C107.393 124.443 109.66 122.341 111.848 121.278C111.877 121.264 111.906 121.251 111.934 121.237V121.221V121.2V121.179V121.158V121.137V121.115V121.094V121.072V121.05V121.028V121.006V120.984V120.961V120.939V120.916V120.893V120.87V120.847V120.824V120.8V120.776V120.753V120.729V120.705V120.681V120.656V120.632V120.607V120.583V120.558V120.533V120.508V120.483V120.457V120.432V120.406V120.38V120.354V120.328V120.302V120.275V120.249V120.222V120.195V120.169V120.141V120.114V120.087V120.059V120.032V120.004V119.976V119.948V119.92V119.891V119.863V119.834V119.806V119.777V119.748V119.719V119.689V119.66V119.63V119.601V119.571V119.541V119.511V119.48V119.45V119.42V119.389V119.358V119.327V119.296V119.265V119.234V119.202V119.17V119.139V119.107V119.075V119.043V119.01V118.978V118.945V118.913V118.88V118.847V118.814V118.78V118.747V118.713V118.68V118.646V118.612V118.578V118.544V118.509V118.475V118.44V118.406V118.371V118.336V118.301V118.265V118.23V118.194V118.159V118.123V118.087V118.051V118.015V117.978V117.942V117.905V117.868V117.832V117.795V117.757V117.72V117.683V117.645V117.607V117.57V117.532V117.494V117.455V117.417V117.379V117.34V117.301V117.262V117.223V117.184V117.145V117.105V117.066V117.026V116.986V116.947V116.906V116.866V116.826V116.785V116.745V116.704V116.663V116.622V116.581V116.54V116.498V116.457V116.415V116.374V116.332V116.29V116.247V116.205V116.163V116.12V116.077V116.035V115.992V115.949V115.905V115.862V115.819V115.775V115.731V115.687V115.643V115.599V115.555V115.511V115.466V115.421V115.377V115.332V115.287V115.242V115.196V115.151V115.105V115.06V115.014V114.968V114.922V114.876V114.829V114.783V114.736V114.69V114.643V114.596V114.549V114.502V114.454V114.407V114.359V114.312V114.264V114.216V114.168V114.119V114.071V114.023V113.974V113.925V113.876V113.827V113.778V113.729V113.68V113.63V113.581V113.531V113.481V113.431V113.381V113.331V113.28V113.23V113.179V113.128V113.077V113.026V112.975V112.924V112.873V112.821V112.769V112.718V112.666V112.614V112.562V112.509V112.457V112.405V112.352V112.299V112.246V112.193V112.14V112.087V112.034V111.98V111.926V111.873V111.819V111.765V111.711V111.656V111.602V111.548V111.493V111.438V111.383V111.328V111.273V111.218V111.163V111.107V111.052V110.996V110.94V110.884V110.828V110.772V110.715V110.659V110.602V110.546V110.489V110.432V110.375V110.318V110.26V110.203V110.145V110.088V110.03V109.972V109.914V109.856V109.797V109.739V109.68V109.622V109.563V109.504V109.445V109.386V109.327V109.267V109.208V109.148V109.089V109.029V108.969V108.909V108.848V108.788V108.728V108.667V108.606V108.546V108.485V108.424V108.362V108.301V108.24V108.178V108.117V108.055V107.993V107.931V107.869V107.806V107.744V107.682V107.619V107.556V107.493V107.431V107.367V107.304V107.241V107.178V107.114V107.05V106.987V106.923V106.859V106.795V106.73V106.666V106.601V106.537V106.472V106.407V106.342V106.277V106.212V106.147V106.081V106.016V105.95V105.884V105.818V105.752V105.686V105.62V105.554V105.487V105.421V105.354V105.287V105.22V105.153V105.086V105.019V104.951V104.884V104.816V104.748V104.681V104.613V104.545V104.476V104.408V104.34V104.271V104.202V104.134V104.065V103.996V103.927V103.857V103.788V103.719V103.649V103.579V103.509V103.44V103.37V103.299V103.229V103.159V103.088V103.018V102.947V102.876V102.805V102.734V102.663V102.592V102.52V102.449V102.377V102.305V102.234V102.162V102.09V102.017V101.945V101.873V101.8V101.728V101.655V101.582V101.509V101.436V101.363V101.289V101.216V101.143V101.069V100.995V100.921V100.847V100.773V100.699V100.625V100.55V100.476V100.401V100.326V100.252V100.177V100.102V100.026V99.951V99.8756V99.8001V99.7245V99.6487V99.5729V99.4969V99.4209V99.3447V99.2684V99.192V99.1155V99.0389V98.9622V98.8853V98.8084V98.7313V98.6542V98.5769V98.4995V98.422V98.3444V98.2667V98.1889V98.111V98.0329V97.9548V97.8765V97.7982V97.7197V97.6412V97.5625V97.4837V97.4048V97.3258V97.2467V97.1674V97.0881V97.0087V96.9291V96.8495V96.7697V96.6899V96.6099V96.5298V96.4496V96.3693V96.2889V96.2084V96.1278V96.0471V95.9663V95.8853V95.8043V95.7231V95.6419V95.5605C111.934 94.6163 111.646 93.6971 111.07 92.9918C107.815 89.0058 104.664 87.9833 101.84 88.395C98.9628 88.8145 96.2963 90.7385 94.0853 92.9229C93.3129 93.6859 92.9111 94.7565 92.9111 95.8748V129.381C92.9111 129.658 92.6872 129.881 92.4111 129.881C92.1349 129.881 91.9111 129.658 91.9111 129.381V95.8748C91.9111 94.5226 92.3974 93.1846 93.3825 92.2115C93.8912 91.7089 94.4304 91.2125 94.997 90.7396V90.7338V90.7267V90.7195V90.7122V90.7049V90.6974V90.69V90.6824V90.6748V90.6671V90.6593V90.6514V90.6435V90.6355V90.6275V90.6194V90.6112V90.6029V90.5945V90.5861V90.5777V90.5691V90.5605V90.5518V90.543V90.5342V90.5253V90.5163V90.5072V90.4981V90.4889V90.4796V90.4703V90.4608V90.4514V90.4418V90.4322V90.4225V90.4127V90.4028V90.3929V90.3829V90.3728V90.3627V90.3525V90.3422V90.3318V90.3214V90.3109V90.3003V90.2896V90.2789V90.2681V90.2572V90.2463V90.2353V90.2242V90.213V90.2018V90.1904V90.179V90.1676V90.156V90.1444V90.1327V90.121V90.1091V90.0972V90.0852V90.0732V90.061V90.0488V90.0365V90.0242V90.0118V89.9992V89.9867V89.974V89.9613V89.9485V89.9356V89.9226V89.9096V89.8965V89.8833V89.87V89.8567V89.8433V89.8298V89.8162V89.8026V89.7888V89.775V89.7612V89.7472V89.7332V89.7191V89.7049V89.6907V89.6763V89.6619V89.6475V89.6329V89.6183V89.6036V89.5888V89.5739V89.559V89.5439V89.5288V89.5137V89.4984V89.4831V89.4677V89.4522V89.4366V89.421V89.4053V89.3895V89.3736V89.3576V89.3416V89.3255V89.3093V89.2931V89.2767V89.2603V89.2438V89.2272V89.2106V89.1938V89.177V89.1601V89.1431V89.1261V89.109V89.0918V89.0745V89.0571V89.0397V89.0221V89.0045V88.9868V88.9691V88.9512V88.9333V88.9153V88.8972V88.8791V88.8608V88.8425V88.8241V88.8056V88.7871V88.7684V88.7497V88.7309V88.712V88.6931V88.674V88.6549V88.6357V88.6164V88.597V88.5776V88.5581V88.5385V88.5188V88.499V88.4792V88.4592V88.4392V88.4191V88.3989V88.3787V88.3583V88.3379V88.3174V88.2968V88.2762V88.2554V88.2346V88.2137V88.1927V88.1716V88.1504V88.1292V88.1079V88.0865V88.065V88.0434V88.0217V88V87.9782V87.9563V87.9343V87.9122V87.8901V87.8678V87.8455V87.8231V87.8006V87.7781V87.7554V87.7327V87.7099V87.687V87.664V87.6409V87.6178V87.5945V87.5712V87.5478V87.5243V87.5008V87.4771V87.4534V87.4295V87.4056V87.3816V87.3575V87.3334V87.3091V87.2848V87.2604V87.2359V87.2113V87.1866V87.1619V87.137V87.1121V87.0871V87.062V87.0368V87.0115V86.9862V86.9607V86.9352V86.9096V86.8839V86.8581V86.8323V86.8063V86.7803V86.7541V86.7279V86.7016V86.6752V86.6488V86.6222V86.5956V86.5688V86.542V86.5151V86.4881V86.461V86.4339V86.4066V86.3793V86.3519V86.3244V86.2967V86.2691V86.2413V86.2134V86.1855V86.1574V86.1293V86.1011V86.0728V86.0444V86.0159V85.9874V85.9587V85.93V85.9011V85.8722V85.8432V85.8141V85.785V85.7557V85.7263V85.6969V85.6673V85.6377V85.608V85.5782V85.5483V85.5183V85.4883V85.4581V85.4278V85.3975V85.3671V85.3366V85.306V85.2753V85.2445V85.2136V85.1826V85.1516V85.1205V85.0892V85.0579V85.0265V84.995V84.9634V84.9317V84.8999V84.8681V84.8361V84.8041V84.7719V84.7397V84.7074V84.675V84.6425V84.6099V84.5772V84.5444V84.5116V84.4786V84.4456V84.4124V84.3792V84.3459V84.3125V84.279V84.2454V84.2117V84.1779V84.144V84.1101V84.076V84.0419V84.0076V83.9733V83.9389V83.9044V83.8698V83.8351V83.8003V83.7654V83.7304V83.6954V83.6602V83.6249V83.5896V83.5541V83.5186V83.483V83.4473V83.4115V83.3756V83.3396V83.3035V83.2673V83.231V83.1946V83.1581V83.1216V83.0849V83.0482V83.0113V82.9744V82.9374V82.9002V82.863V82.8257V82.7883V82.7508V82.7132V82.6755V82.6377V82.5999V82.5619V82.5238V82.4856V82.4474V82.409V82.3706V82.332V82.2934V82.2547V82.2158V82.1769V82.1379V82.0988V82.0596V82.0202V81.9808V81.9413V81.9017V81.8621V81.8223V81.7824V81.7424V81.7023V81.6622V81.6219V81.5815V81.5411V81.5005V81.4599V81.4191V81.3783V81.3373V81.2963V81.2551V81.2139V81.1726V81.1311V81.0896V81.048V81.0063V80.9644V80.9225V80.8805V80.8384V80.7962V80.7539V80.7115V80.669V80.6264V80.5837V80.5409V80.498V80.455V80.4119V80.3687V80.3254V80.2821V80.2386V80.195V80.1513V80.1075V80.0637V80.0197V79.9756V79.9314V79.8872V79.8428V79.7983V79.7537V79.7091V79.6643V79.6194V79.5745V79.5294V79.4842V79.439V79.3936V79.3481V79.3026V79.2569V79.2111V79.1653V79.1193V79.0732V79.0271V78.9808V78.9344V78.888V78.8414V78.7947V78.748V78.7011V78.6541V78.607V78.5599V78.5126V78.4652V78.4178V78.3702V78.3225V78.2747V78.2268V78.1789V78.1308V78.0826V78.0343V77.9859V77.9374V77.8888V77.8401V77.7913V77.7424V77.6934V77.6443V77.5951V77.5458C94.997 76.3438 94.5308 75.1924 93.6504 74.4378C90.1227 71.4142 87.1425 70.681 84.5855 71.0201Z" fill="#E86917"/>
<path d="M135.538 33.8848L135.538 55.448" stroke="#E86917" stroke-linecap="round"/>
<path d="M160.028 43.1272L144.78 58.3747" stroke="#E86917" stroke-linecap="round"/>
<path d="M110.894 43.2059L126.142 58.4534" stroke="#E86917" stroke-linecap="round"/>
</svg>
